<?xml version="1.0" encoding="utf-8"?>
<!-- Generator: Adobe Illustrator 18.1.1, SVG Export Plug-In . SVG Version: 6.00 Build 0)  -->
<!DOCTYPE svg PUBLIC "-//W3C//DTD SVG 1.1//EN" "http://www.w3.org/Graphics/SVG/1.1/DTD/svg11.dtd">
<svg version="1.1" id="Layer_1" xmlns="http://www.w3.org/2000/svg" xmlns:xlink="http://www.w3.org/1999/xlink" x="0px" y="0px"
	 viewBox="0 0 612 792" enable-background="new 0 0 612 792" xml:space="preserve">
<g>
	<g>
		<path fill="#EFE1D3" d="M97.1,400.4c0.2,0.3,0.3,0.7,0.5,1c0.3,0.7,0.7,0.7,1.5,0.2c0.3-0.2,1-0.2,1.2,0.2
			c0.2,0.3,0.2,0.7,0.2,0.8s-0.2,0.2-0.2,0.3c-0.3,0.5,0,1.5,0.5,1.7c0.3,0.2,0.7,0.3,1.2,0c0.5-0.2,1-0.2,1.5,0.2
			c0,0.5-0.3,1-0.7,1.3c-0.5,0.5-0.5,0.5-0.2,1.3c0,0.2,0.2,0.3,0.3,0.5c0.7,0.2,1.5,0.3,2.3,0.5c0,0.2,0,0.2,0,0.3s0,0.2,0,0.3
			c-0.3,0.3-0.8,0.7-1.3,1.2c-0.3,0.3-0.5,0.7-0.2,1.2c0.3,0.7,0.3,1.5,1.2,1.8c0.2,0.2,0.3,0.3,0.5,0.3c0.7,0.3,0.8,0.8,0.3,1.3
			c-0.2,0.2-0.3,0.3-0.5,0.5s-0.3,0.5-0.2,0.7c0.2,0.2,0,0.5,0.3,0.7c0.2,0,0.5,0.3,0.7,0.5c0.3,0.2,0.2,0.7,0.2,1
			c-0.5,0.2-0.8,0.2-1.3,0s-1.3,0.3-1.3,0.8c0,0.7-0.2,1.2-0.3,1.7c-0.2,0.7-0.2,0.8,0.5,1c0.3,0.2,0.7,0.2,0.8,0.3s0.2,0.3,0.3,0.5
			c0,0.2,0,0.5,0,0.7c-0.2,0.2-0.5,0.2-0.7,0.2c-0.5-0.2-0.8-0.3-1.3-0.5c-0.7-0.2-1.3,0-1.5,0.7s-0.7,1.2-0.2,1.8
			c0.2,0.2,0,0.5-0.2,0.8c-0.2,0.5-0.2,0.8,0.3,1c-0.2,0.5-0.3,0.8-0.5,1.3c-0.8-0.5-1.8-0.5-2.6-1.2c-0.2-0.2-0.7,0-1,0.2
			s-0.8,0.2-0.5,0.7c-0.3,0.5-0.7,1-1,1.5c0.2,0.3,0.3,0.8,0.7,1.2c-0.5,0.5-1.2,0.3-1.5,0.8c-0.3,0.3-0.8,0.7-1.2,1.2
			c-0.3-0.3-0.7-0.7-1-1c0.2-0.7,0.2-0.7-0.5-1.8c-0.5,0-1,0-1.5,0s-1-0.2-1.5,0c-0.3,0.2-0.5,0.8-0.8,1.2c-0.2,0.2-0.2,0.3-0.2,0.5
			c0,0.5-0.2,1-0.3,1.5c-0.5,0.2-1,0.2-1.2-0.3c0-0.2-0.2-0.2-0.2-0.3c0.2-0.5-0.3-0.8-0.3-1.2c0-0.3-0.7-0.3-0.3-0.8
			c0.2-0.2-0.2-0.5-0.3-0.8c-0.5-0.2-0.8-0.3-1.2-0.3c-0.3,0.2-0.5,0.5-0.8,0.7c-0.2,0.3-0.2,0.8-0.5,1.2c-0.2,0.3-0.3,0.5-0.7,0.3
			c-0.2-0.2-0.5-0.3-0.5-0.5c0-0.5,0.2-1,0.2-1.7c0-0.2,0.3-0.3,0.5-0.5c0-0.2-0.2-0.3-0.2-0.5c-0.7-0.5-1.5-0.8-2.1-1.3
			c-0.5,0.3-1,0.7-1.2,1.2c-0.2,0.3-0.7,0.3-1,0.3c-0.5-0.7-0.2-1.2,0.3-1.8c0-0.2,0.2-0.2,0.2-0.3c-0.2-0.8-0.2-1.7-0.8-2.1
			c-0.2-0.2-0.5-0.3-0.8-0.3c-1,0-1.3-0.3-1.2-1.3c0-0.3,0-0.7,0-1c-0.5-0.2-1-0.3-1.5-0.5c-0.2-0.3-0.3-0.5-0.3-0.7s0-0.5,0.2-0.7
			s0.3-0.3,0.7-0.5c0.2-0.2,0.5,0.2,0.7-0.2c0.2-0.3,0-0.5-0.2-0.8c-0.2-0.2-0.2-0.3-0.3-0.7c-0.3-0.2-0.7-0.2-1-0.3
			c0-0.3-0.2-0.7,0-0.8c0.3-0.7-0.2-1.2-0.7-1.5c-0.7-0.7-0.7-0.7-0.5-1.7c0.3,0,0.7,0,1,0c0.5,0,0.7-0.5,0.7-0.7
			c-0.2-0.8,0.3-1.3,0.5-2c-0.2-0.5-0.3-1-1-1c0-0.2,0-0.2,0-0.3c0-0.8,0-1.2,0.8-1.2c0.5,0,1-0.3,1.5-0.5c-0.2-0.3-0.3-0.7-0.5-1
			s-0.3-0.5-0.7-0.8c0.2-0.3,0.2-0.5,0.3-0.8c0.2-0.2,0.5-0.5,0.5-0.3c0.8,0.5,1.3-0.2,2-0.3l0,0c0-0.3,0-0.7,0.2-0.8
			c0.3-0.2,0.3-0.5,0.3-0.8c0-0.5,0.2-0.8,0.5-1.2c0.3-0.2,0.5-0.5,0.7-1s0.5-1,1.3-0.8c0.5,0.2,1,0,1.5-0.2c0.7,0,1-0.5,1.5-0.8
			c0.2-0.2,0.2-0.5,0.2-0.8c0-0.5-0.2-1,0-1.2c0.5-0.2,1-0.3,1.3-0.5s0.8-0.2,1.2-0.2c0.5,0,0.5,0.3,0.7,0.5
			c0.2,0.3,0.2,0.7,0.2,1.2c1,0.3,1.8,0.8,3,0.3c0.2,0,0.5,0,0.8,0c0.7-0.2,1.2-0.3,1.5-1c0.2-0.5,0.7-0.8,1-1.3
			c0.3,0.2,0.7,0.2,1,0.3c0,0.8-0.3,1.8-0.3,2.6c0.5,0.3,1,0.3,1.3,0c0.5-0.5,1-0.5,1.7-0.2C97.5,399.5,97.3,400,97.1,400.4z"/>
		<path fill="#EFE1D3" d="M92.9,463.6c0.3-0.3,0.5-0.7,0.7-1c0.2,0.3,0.3,0.8,0.5,1c0.7,0.3,1.2,0.5,1.7,0.3c0.5,0,1,0,1.5-0.2
			c0.5,0.7,0.5,1.5,1.2,1.8s1.3,0.5,2,0.7c-0.2,0.3-0.2,0.8-0.3,1.2c-0.2,0.5,0,0.8,0.3,1c-0.2,0.3-0.3,0.8-0.3,1.2
			c0.2,0.8,1,0.3,1.3,0.7c-0.3,0.7-1.2,0.3-1.5,0.8c0,0.7,0.5,1,1,1.3c-0.5,0.5-0.5,0.5-1.5,0.5c-0.5,0.3,0.3,1-0.5,1.2
			c0.2,0.5-0.2,0.8-0.3,1.3c-0.3-0.2-0.5-0.3-0.7-0.2c-0.3,0-0.7,0.2-0.8,0.3s0,0.5,0,0.7s0,0.3-0.2,0.7c-0.5-0.3-0.8-0.5-1.2-0.7
			c-0.7,0.8-1.5,0.7-2.3,1h-0.2c-0.3-0.2-0.7-0.5-0.8-0.7c-0.3-0.7-1-0.8-1.5-1c-0.3,0.2-0.3,0.8-1,0.7c0-0.2-0.2-0.5-0.2-0.5
			c0.3-0.5,0-1-0.3-1.5c-0.2,0-0.3,0.2-0.5,0.2s-0.5-0.2-0.8-0.3c0.3-0.5,0.2-1.2,0-1.7c0-0.3-0.2-0.7-0.5-0.7
			c-0.7,0-0.3-0.5-0.5-0.8c0.5-0.2,0.8-0.5,0.8-1c0-0.3-0.5-0.7-0.7-1c0-0.2,0-0.2,0.2-0.2c0.8-0.5,0.8-0.7,0.7-1.5
			c-0.2-0.3-0.2-0.7,0-1c0.2,0,0.5,0,0.7,0.2c0.5-1.2,1.5-1.8,2.5-2.5C91.7,463.4,92.2,463.7,92.9,463.6z"/>
		<path fill="#EFE1D3" d="M91.7,449.6c0-1,0.8-1.7,0.5-2.5c0.8-0.5,0.8-1.7,1.8-2c0.3-0.2,0.5-0.5,0.7-0.7c0.5-0.5,0.8-0.5,1.5-0.2
			s0.8,0.3,1.3-0.2c0.2-0.2,0.2-0.3,0.3-0.5c0.2-0.2,0.5-0.3,0.8-0.5c-0.2,0.5-0.2,0.8-0.2,1.2c0.3,0.2,0.7,0.3,1,0.3s0.7,0,1-0.2
			c0.3,0.5,0.5,1.2,0.7,1.5c0.5,0.2,0.8,0.3,1.2,0.3c0,0.2,0,0.2,0,0.3c0.2,0.3,0.2,0.8,0.3,1.2c0.3,0.7,0.3,1.3,0.2,2
			c-0.2,0.8-0.2,1.8-0.7,2.6c-0.3,0-0.7,0-0.7,0.2c-0.3,0.7-1.2,0.7-1.2,1.5c-0.5,0-0.8,0-1.3,0c-0.2,0.3-0.2,0.7-0.3,1
			c-0.2,0-0.3,0-0.5-0.2c-0.5-0.5-0.8-0.8-1.5-0.2c0,0-0.5,0.2-0.7-0.2c0-0.2-0.2-0.3-0.3-0.5c-0.2-0.3-0.5-0.5-0.8-0.3
			s-0.5,0.3-0.7,0.3c-0.2-0.2-0.3-0.2-0.3-0.2l-1-1.7c-0.5-0.3-0.7-0.8-0.5-1.3c0.2-0.3,0-0.5-0.2-0.7C92,450,91.9,449.9,91.7,449.6
			z"/>
		<path fill="#EFE1D3" d="M113.2,477.1c-0.2-0.7-0.7-0.3-1-0.5s-0.7-0.2-0.8-0.5c-0.3-0.8-1.3-1.3-1.7-2.1c-0.3-0.7-0.5-1.3-0.3-2.1
			c0-0.2,0-0.3,0-0.5c-0.2-0.3-0.3-0.7,0.2-0.8c-0.2-0.7,0.5-1,0.8-1.7c0.3-0.8,1.3-1,1.7-1.7c0.5-0.2,1.2-0.3,1.7-0.3
			c0.7,0.2,1.3-0.2,2,0.2c0.8-0.3,1.2,0.3,1.5,0.7c0.2,0.2,0.5,0.3,0.7,0.7c0.7,0.7,1.2,1.5,1.3,2.3c0.2,0.7,0.2,1.3-0.2,2
			c-0.2,0.3-0.2,0.7-0.2,1s-0.3,0.8-0.7,1.2c-0.2,0.2-0.5,0.3-0.7,0.7c-0.2,0.3-0.3,0.7-0.5,0.5c-0.5-0.2-0.5,0.3-0.8,0.3
			c-0.5,0-1.2,0.2-1.7,0.5C114.1,477.4,113.7,476.8,113.2,477.1z"/>
		<path fill="#EFE1D3" d="M81.1,474.5c0,0.2,0.2,0.5,0.3,0.7c0.7-0.2,1.2-0.2,1.5,0.5c0.2,0.3,0.5,0.5,0.8,0.5
			c0.5,0.2,0.7,0.7,0.7,1.2s0,0.5,0.7,1c-0.3,0.7-0.3,1.5-1,2.1c-0.2,0.3-0.2,0.8-0.2,1.3c-0.2,0-0.3,0-0.3,0
			c-0.3,0.2-0.8,0-0.8,0.5c0,0.3-0.5,0.3-0.7-0.2c-0.5,0.2-0.8,0.2-1.2,0.8c-0.7-0.3-1.2-1-2.1-0.8c-0.2-0.5-0.2-1.2-1-1.3l-0.2-0.2
			c0.2-0.3,0-0.7-0.2-1c-0.5-1-0.2-2,0.5-3c0.3-0.5,0.5-0.7,1.2-0.7c0.2-0.3,0.2-0.7,0.3-1h0.2c0.5,0.2,0.8,0.3,1.2-0.3
			C80.6,474.6,80.8,474.6,81.1,474.5z"/>
		<path fill="#EFE1D3" d="M83.9,460.8c0,0.3,0.2,0.7,0.2,0.8c0.3,0,0.7-0.2,1-0.2c0.3,0.5,0,1.5,0.8,1.8c0,0.3-0.2,0.7,0,1
			c0.2,1.2-0.7,1.8-1.5,2.5c-0.2,0.2-0.5,0.2-0.8,0.2c-0.5-0.2-0.7,0.2-1,0.5c-0.3-0.2-0.7-0.5-1-0.5s-0.7,0.3-1,0.5
			c0-0.3,0.2-0.7,0-0.8c0-0.2-0.3-0.3-0.5-0.7c-0.3-0.7-0.5-1.3-0.7-1.8c0-0.2,0-0.3,0-0.5c0.3-1,0.8-1.7,1.8-2.3
			c0.5-0.3,0.8-0.5,1.3-0.3C83,461.3,83.5,460.9,83.9,460.8z"/>
		<path fill="#EFE1D3" d="M62,560.8c-0.5,1.3-2.1,2.6-3.6,2.5c-1-0.2-1.7-0.7-2.3-1.5c-0.2-0.2-0.3-0.5-0.3-0.8
			c0.2-0.3,0.2-0.7,0.3-1c0.3-0.2,0.8-0.3,1.3-0.7c1,0.2,2,0.5,3.1,0.5c0.2,0,0.5,0.2,0.7,0.3C61.3,560.3,61.7,560.6,62,560.8z"/>
		<path fill="#EFE1D3" d="M53.6,582.7c0,0.3-0.2,0.7-0.5,0.8c-0.2,0.2-0.5,0.3-0.7,0.5c0,0,0,0.2-0.2,0.2c-0.5,0.3-2.3,0.2-2.8-0.5
			c-0.3-0.3-0.7-0.8-0.5-1.2c0.2-0.5,0.3-1,0.7-1.2c0.3-0.3,1-0.3,1.5-0.3c0.3,0,0.8,0.2,1,0.5C52.8,581.9,53.1,582.2,53.6,582.7z"
			/>
		<path fill="#EFE1D3" d="M56.1,370.2c0.2,0.5,0.5,1,0.5,1.7c0,0.5-0.2,0.8-0.5,1.2c-0.5,0.5-1,0.7-1.5,0.7c-0.3,0-0.7,0-1-0.3
			c-0.5-0.5-0.8-2-0.3-2.5c0.3-0.3,0.3-0.8,1-1c0.5,0,0.8-0.2,1.3,0C55.7,370.2,55.9,370.2,56.1,370.2z"/>
		<path fill="#EFE1D3" d="M55.6,395.9c-0.5,0.2-0.8,0.5-1.3,0.7c-0.3-0.2-0.7-0.2-1-0.3c-0.2-0.3-0.3-0.7-0.5-1
			c0.2-0.3,0.3-0.8,0.5-1.2c0.3-0.2,0.5-0.2,0.8-0.3c1-0.7,1.7-0.3,1.8,0.8C55.9,395.1,55.9,395.1,55.6,395.9z"/>
		<path fill="#EFE1D3" d="M107.7,559.6c-0.3-0.3-0.5-0.8-0.8-1.2c0.3-0.3,0.7-0.5,1-0.7s0.7,0.2,1,0.2s0.7,0.3,1,0.5
			C109.5,559.3,108.5,559.3,107.7,559.6z"/>
		<path fill="#EFE1D3" d="M141.2,486.9c-0.5,1.7-0.8,1.8-2.5,1.2c0-0.2,0.2-0.5,0.2-0.7s0.2-0.3,0.2-0.5
			C139.7,486.4,140.4,486.5,141.2,486.9z"/>
		<path fill="#EFE1D3" d="M62.2,368.5c0-0.3-0.2-0.5-0.2-0.8c-0.2-0.3,0-0.5,0.2-0.8c0.7-0.8,1.3-0.7,1.7,0.2
			c0.2,0.2,0.2,0.3,0.3,0.5C63.5,368,63,368.7,62.2,368.5z"/>
		<path fill="#EFE1D3" d="M78.7,546.9c0.5-0.2,0.8-0.3,1.3-0.3c0.2,0.2,0.2,0.2,0.3,0.3c0,0.2,0.2,0.2,0.2,0.3
			c0,0.3-0.5,0.7-0.8,0.7s-0.5-0.2-0.7-0.5C78.8,547.3,78.7,547.1,78.7,546.9z"/>
		<path fill="#EFE1D3" d="M29.6,556.7c-0.3,0.2-0.7,0.5-1.2,0.2c-0.3-0.2-0.5-0.5-0.3-0.8c0-0.3,0.3-0.5,0.8-0.5
			C29.3,555.8,29.3,556.3,29.6,556.7z"/>
		<path fill="#EFE1D3" d="M71.7,481.6c-0.3,0.8-0.5,1-0.8,1c-0.3-0.2-0.5-0.5-0.3-0.8c0-0.2,0.2-0.2,0.3-0.3
			C70.9,481.2,70.9,481.2,71.7,481.6z"/>
		<path fill="#EFE1D3" d="M56.2,470.5c-0.7,0.7-1,0.2-1.5,0.2c0.2-0.7,0.2-0.7,0.7-0.8C55.6,470,55.9,470.3,56.2,470.5z"/>
		<path fill="#EFE1D3" d="M50.3,512.8c0,0.8-0.5,0.8-1,1c-0.2-0.2-0.2-0.3-0.3-0.5C49.3,512.8,49.8,512.8,50.3,512.8z"/>
		<path fill="#EFE1D3" d="M32.3,544.3c0.5,0,0.8,0.2,0.8,0.7c-0.3,0.3-0.7,0.3-1,0.2C32.1,544.9,32.3,544.6,32.3,544.3z"/>
		<path fill="#EFE1D3" d="M97.1,585.2c0-0.2-0.2-0.3-0.3-0.7c0.2-0.2,0.3-0.3,0.5-0.3c0.5-0.2,0.7,0.2,0.8,0.5
			C97.8,584.9,97.5,585,97.1,585.2z"/>
		<path fill="#EFE1D3" d="M68.3,375.1c-0.2,0.2-0.3,0.3-0.7,0.5c-0.2-0.5-0.2-0.8-0.2-1.2c0.2,0,0.2,0,0.3,0
			C68.1,374.5,68.1,374.8,68.3,375.1z"/>
		<path fill="#EFE1D3" d="M46.6,379.7c-0.2-0.3-0.3-0.7-0.5-1c0.7-0.2,0.8,0.2,1,0.5C47.1,379.2,46.8,379.4,46.6,379.7z"/>
		<path fill="#EFE1D3" d="M55.1,563.3c-0.2-0.7-0.2-0.7,0.3-0.8C55.6,562.9,55.6,562.9,55.1,563.3z"/>
		<path fill="#EFE1D3" d="M101.4,402.2c-0.2-0.3-0.3-0.5-0.5-0.7c0.3-0.2,0.5-0.2,0.8-0.3C101.6,401.7,101.4,401.9,101.4,402.2z"/>
	</g>
</g>
<line fill="none" stroke="#EFE1D3" stroke-miterlimit="10" x1="93.8" y1="671.9" x2="536.1" y2="671.9"/>
<line fill="none" stroke="#EFE1D3" stroke-miterlimit="10" x1="93.8" y1="741.2" x2="536.1" y2="741.2"/>
<g>
	
		<radialGradient id="SVGID_1_" cx="292" cy="434" r="1062.194" gradientTransform="matrix(1.6503 0 0 1.6503 5.5549 3.476715e-02)" gradientUnits="userSpaceOnUse">
		<stop  offset="0" style="stop-color:#FFF6F1"/>
		<stop  offset="1" style="stop-color:#D6C3B4"/>
	</radialGradient>
	<path fill="url(#SVGID_1_)" d="M262.3,437.8c-0.3-1-0.8-1.8-1.3-2.8c0-0.2-0.2-0.2-0.3-0.3c-0.5,0.3-0.8,0.3-1.2-0.3
		c0-0.2-0.2-0.2-0.3-0.2c-0.2,0.2-0.5,0.2-0.7,0.2c-0.5-0.2-1-0.3-1.7-0.5c-0.5,0.3-1.2,0.3-1.5,1s-1.2,0-1.7,0.7l-0.2,0.2
		c0,0.2,0.2,0.3,0.2,0.7c-0.3,0.2-0.8,0.3-1.2,0.5c-0.2,0.5-0.3,1-0.5,1.5c0.2,0.5,0.3,0.8,0.5,1.2c-0.2,0.3-0.2,0.7-0.3,0.8
		c0.3,0.7,0.7,1.5,1,2.1c0.3,0.2,0.8,0.2,1,0.5c0,0.3-0.2,0.5,0,0.8c0.5-0.2,0.8-0.5,1.2,0.2c0,0.2,0.2,0.3,0.3,0.2
		c0.7-0.5,1.3,0.3,2,0.2c0.3-0.2,0.7-0.3,1-0.5c0.2,0,0.5,0.2,0.7,0.2c0.3,0.2,0.5,0,0.5-0.2c0.2-0.8,0.8-1,1.5-1.3
		c0.2-0.5,0.3-1,0.5-1.5s-0.3-1,0-1.5C262.7,439,262.5,438.3,262.3,437.8z"/>
	
		<radialGradient id="SVGID_2_" cx="292" cy="434" r="1062.194" gradientTransform="matrix(1.6503 0 0 1.6503 5.5549 3.476715e-02)" gradientUnits="userSpaceOnUse">
		<stop  offset="0" style="stop-color:#FFF6F1"/>
		<stop  offset="1" style="stop-color:#D6C3B4"/>
	</radialGradient>
	<path fill="url(#SVGID_2_)" d="M467.8,140.4c0.5,0.2,1,0.3,1.5,0.5c0.7,0.3,1.2-0.3,1.8,0c0.2,0.2,0.5,0,0.7,0
		c0.5-0.2,1-0.3,1.2-0.7c0.3-0.5,0.5-1,1-1.2c0.5-1.2,0.8-2.3,0.5-3.5c-0.2-0.3-0.2-0.7-0.2-1c-0.8,0-0.3-0.7-0.5-1
		s-0.7-0.3-0.7-0.8c-1-0.3-1.7-1.2-2.8-0.7c-0.5-0.2-1.2,0-1.5,0.5c-0.3,0.7-1.2,0.5-1.3,1.2c-0.2,0.5-0.7,0.8-1,1.2
		c-0.3,0.5,0,1,0,1.5c0,0.2-0.2,0.5-0.2,0.7C466.7,138.1,467.2,139.1,467.8,140.4z"/>
	
		<radialGradient id="SVGID_3_" cx="292" cy="434" r="1062.194" gradientTransform="matrix(1.6503 0 0 1.6503 5.5549 3.476715e-02)" gradientUnits="userSpaceOnUse">
		<stop  offset="0" style="stop-color:#FFF6F1"/>
		<stop  offset="1" style="stop-color:#D6C3B4"/>
	</radialGradient>
	<path fill="url(#SVGID_3_)" d="M297.7,297.2c-0.8,0.8-0.8,0.8-1.2,1.8c0.2,0.3,0.3,0.7,0.5,0.8c0.3,0.3-0.2,1,0.3,1.3
		c-0.2,0.7,0.2,1,0.3,1.5c0.3,0.5,0.7,0.8,1,1.2c0.3,0.3,1.2,0.3,1.2,1c0.2,0,0.3,0,0.3-0.2c0.5-0.2,0.7,0.2,1.2,0.2
		c0.7-0.3,1.3-0.7,2.1-1.2c0-0.2,0.2-0.5,0.3-0.8c0-0.2,0.2-0.5,0.2-0.7c0-0.3,0.3-0.7,0.2-0.8c-0.3-0.5,0-0.8-0.2-1.3
		c-0.5-0.7-0.7-1.5-1-2.3c-1-0.3-2-0.7-2.8-1c-0.7-0.2-1.3,0.3-2-0.2C298,296.9,297.8,297.1,297.7,297.2z"/>
	
		<radialGradient id="SVGID_4_" cx="292" cy="434" r="1062.194" gradientTransform="matrix(1.6503 0 0 1.6503 5.5549 3.476715e-02)" gradientUnits="userSpaceOnUse">
		<stop  offset="0" style="stop-color:#FFF6F1"/>
		<stop  offset="1" style="stop-color:#D6C3B4"/>
	</radialGradient>
	<path fill="url(#SVGID_4_)" d="M257.4,397.1c0.3,0.2,0.8,0.3,1.2,0.2c0.5-0.2,1.2,0.2,1.5-0.3c0.2-0.2,0.5-0.3,0.7-0.3
		c0.5,0.2,0.7,0,0.8-0.5c0.2-0.3,0.7-0.3,0.8-0.8c0.2-0.7,0.3-1.2,0.7-2c-0.2-0.3-0.3-0.7-0.7-1.2c0-0.2-0.2-0.3-0.2-0.5
		c-0.5-0.5-0.8-1.2-1.7-1.5c-0.7-0.2-1.3-0.5-2.1-0.7c-0.5,0.3-1,0.5-1.7,0.8c-0.7,0.5-1.2,0.8-1.5,1.7c-0.2,0.7-0.5,1.3-0.7,2.1
		c0.5,0.7,1,1.5,1.7,2.3C256.6,396.7,256.9,396.9,257.4,397.1z"/>
	
		<radialGradient id="SVGID_5_" cx="292" cy="434" r="1062.194" gradientTransform="matrix(1.6503 0 0 1.6503 5.5549 3.476715e-02)" gradientUnits="userSpaceOnUse">
		<stop  offset="0" style="stop-color:#FFF6F1"/>
		<stop  offset="1" style="stop-color:#D6C3B4"/>
	</radialGradient>
	<path fill="url(#SVGID_5_)" d="M70.9,360.8c0.8,0.3,1.7,0.5,2.5,0.8c0.3,0.2,0.7,0.3,0.8,0.2c0.5-0.3,0.8,0,1.3-0.2
		c0.3-0.2,0.8-0.3,1.2-0.5c0.3-0.8,0.5-1.5,0.8-2.3c-0.2-0.2-0.2-0.3-0.2-0.3c-0.2-0.3-0.3-0.8-0.7-1.2c-0.2-0.2-0.3-0.5-0.7-0.7
		c-0.3-0.3-0.8-0.3-1.3-0.5c-0.7-0.2-1.3-0.5-2-0.7c-1,0.5-1.8,0.8-2.6,1.7c-0.3,0.3-0.3,0.8-0.7,1.2c-0.2,0.5,0.3,0.8,0,1.3
		C69.8,359.6,70.9,360.8,70.9,360.8z"/>
	
		<radialGradient id="SVGID_6_" cx="292" cy="434" r="1062.194" gradientTransform="matrix(1.6503 0 0 1.6503 5.5549 3.476715e-02)" gradientUnits="userSpaceOnUse">
		<stop  offset="0" style="stop-color:#FFF6F1"/>
		<stop  offset="1" style="stop-color:#D6C3B4"/>
	</radialGradient>
	<path fill="url(#SVGID_6_)" d="M227.9,479.4c0.3,0.5,1,0.5,1.5,0.7c0.7-0.3,1.3-0.5,1.8-1s1.3-0.8,1.3-1.8c-0.3-0.7-0.5-1.3-1-1.8
		c-0.2-0.3-0.7-0.7-0.8-1c-0.2-0.3-0.7-0.3-1.2-0.3c-0.5-0.2-0.8-0.5-1.3-0.3c-0.2,0.8-0.8,0.3-1.2,0.7c-0.7,1.7-0.7,1.7-0.3,2.5
		c-0.2,0.2-0.3,0.2-0.7,0.3C226.4,478.1,227.4,478.6,227.9,479.4z"/>
	
		<radialGradient id="SVGID_7_" cx="292" cy="434" r="1062.194" gradientTransform="matrix(1.6503 0 0 1.6503 5.5549 3.476715e-02)" gradientUnits="userSpaceOnUse">
		<stop  offset="0" style="stop-color:#FFF6F1"/>
		<stop  offset="1" style="stop-color:#D6C3B4"/>
	</radialGradient>
	<path fill="url(#SVGID_7_)" d="M302.3,99.7c0,1,1.3,0.8,1.5,1.7c0,0,0,0.2,0.2,0.2c0.3,0.2,0.7,0.3,0.8,0.3c0.7-0.3,1.3,0,2-0.5
		c0.3-0.8,0.7-1.7,0.8-2.5c0.2-0.3-0.2-0.7-0.2-1c0.2-0.5-0.2-0.5-0.5-0.7s-0.3-0.7-0.8-0.8c0-0.3-0.2-0.7-0.2-1.2
		c-0.2,0.2-0.3,0.3-0.3,0.5c-0.2,0.2-0.3,0.3-0.3,0.3c-0.7-0.7-1.5,0.2-2.1-0.2c-0.3-0.2-0.7,0.2-0.5,0.7s0.3,0.8-0.3,1.2
		c-0.2,0-0.2,0.2-0.2,0.3C302.1,98.4,302.3,99,302.3,99.7z"/>
	
		<radialGradient id="SVGID_8_" cx="292" cy="434" r="1062.194" gradientTransform="matrix(1.6503 0 0 1.6503 5.5549 3.476715e-02)" gradientUnits="userSpaceOnUse">
		<stop  offset="0" style="stop-color:#FFF6F1"/>
		<stop  offset="1" style="stop-color:#D6C3B4"/>
	</radialGradient>
	<path fill="url(#SVGID_8_)" d="M294,95.2c0,0.5,0,1,0.7,1.2c0.2,0.7,0.8,0.7,1.3,0.8c0.5,0,1.2,0,1.7-0.2s0.8-0.7,1.2-1
		c0,0,0-0.3-0.2-0.3c-0.2-0.5,0.2-0.7,0.2-1c-0.5-1.2-1.2-2.3-1.7-3.6c-0.5,0-0.8,0.2-1.2,0.2c-0.5,0-0.8-0.5-1.3-0.2
		c0,0.2-0.2,0.5-0.3,0.7c-0.2,0.2-0.3,0.3-0.5,0.5s-0.3,0.2-0.2,0.3c0.5,0.7-0.2,1.2-0.3,2C293.7,94.4,294,94.7,294,95.2z"/>
	
		<radialGradient id="SVGID_9_" cx="292" cy="434" r="1062.194" gradientTransform="matrix(1.6503 0 0 1.6503 5.5549 3.476715e-02)" gradientUnits="userSpaceOnUse">
		<stop  offset="0" style="stop-color:#FFF6F1"/>
		<stop  offset="1" style="stop-color:#D6C3B4"/>
	</radialGradient>
	<path fill="url(#SVGID_9_)" d="M281.3,154.8c0,0.8,1,0.5,1.3,1.2s1,0.5,1.5,0.8c0.7-0.2,0.8-0.5,1.2-1c0.2-0.2,0.3-0.2,0.3-0.2
		c0.2-0.3,0.2-0.7,0.3-0.8c0-0.2,0.2-0.5,0.2-0.7c0.3-0.5,0.2-1-0.3-1.3c0,0,0-0.3,0-0.5c0.2-0.3,0-0.5-0.2-0.5
		c-0.3-0.2-0.7-0.2-1-0.5c-0.7-0.8-1.2-0.7-2,0c-0.2,0.8-0.7,0.3-1.2,0.5c-0.3,1-0.7,1.8-1,2.8C281,154.6,281.3,154.6,281.3,154.8z"
		/>
	
		<radialGradient id="SVGID_10_" cx="292" cy="434" r="1062.194" gradientTransform="matrix(1.6503 0 0 1.6503 5.5549 3.476715e-02)" gradientUnits="userSpaceOnUse">
		<stop  offset="0" style="stop-color:#FFF6F1"/>
		<stop  offset="1" style="stop-color:#D6C3B4"/>
	</radialGradient>
	<path fill="url(#SVGID_10_)" d="M158.5,349.2c-0.3-0.7-0.7-1.5-1-2.1c-0.3-0.2-1-0.5-1.3-0.3c-0.5,0.2-1,0-1.3,0.2s-0.7,0-0.8,0
		c-0.3,0-0.3,0.7-0.8,0.8c-0.2,0-0.3,0.5-0.3,0.5c0.3,0.3,0,1.2,0.3,1.3c0.5,0.3,0.7,1,1.3,1.2c0.7,0.2,1.3,0.5,2,0.7
		c0.5-0.2,1-0.5,1.5-0.7C158.2,350,158.4,349.5,158.5,349.2z"/>
	
		<radialGradient id="SVGID_11_" cx="292" cy="434" r="1062.194" gradientTransform="matrix(1.6503 0 0 1.6503 5.5549 3.476715e-02)" gradientUnits="userSpaceOnUse">
		<stop  offset="0" style="stop-color:#FFF6F1"/>
		<stop  offset="1" style="stop-color:#D6C3B4"/>
	</radialGradient>
	<path fill="url(#SVGID_11_)" d="M351.1,481.4c-0.3,0-0.7,0.2-1,0.3c-0.5,0.3-0.8-0.3-1.3-0.2c-0.2,0.2-0.5,0.2-0.7,0.3
		c-0.5,0.7-1.3,1-1.3,2c0.3,0.7,0.5,1.2,0.7,1.5c0.7,0.2,1.3,0.5,1.8,0.7c0.5-0.2,1-0.5,1.5-0.8c0-0.8,0.8-1.5,0.3-2.3
		c0.2-0.5,0.3-0.8,0.5-1.3C351.6,481.7,351.3,481.4,351.1,481.4z"/>
	
		<radialGradient id="SVGID_12_" cx="292" cy="434" r="1062.194" gradientTransform="matrix(1.6503 0 0 1.6503 5.5549 3.476715e-02)" gradientUnits="userSpaceOnUse">
		<stop  offset="0" style="stop-color:#FFF6F1"/>
		<stop  offset="1" style="stop-color:#D6C3B4"/>
	</radialGradient>
	<path fill="url(#SVGID_12_)" d="M455.6,145.7c-0.2,0.7,0.7,0.5,0.7,1c0.8,0.8,1.5,0.7,2.5,0c0.7-0.5,1-1.2,1-1.8
		c-0.3-0.7-0.7-1.3-1-2c-1.2-0.3-1.2-0.3-2.6-0.2c-0.2,0.5-0.3,1.2-0.5,1.5C455.3,144.9,455.8,145.2,455.6,145.7z"/>
	
		<radialGradient id="SVGID_13_" cx="292" cy="434" r="1062.194" gradientTransform="matrix(1.6503 0 0 1.6503 5.5549 3.476715e-02)" gradientUnits="userSpaceOnUse">
		<stop  offset="0" style="stop-color:#FFF6F1"/>
		<stop  offset="1" style="stop-color:#D6C3B4"/>
	</radialGradient>
	<path fill="url(#SVGID_13_)" d="M338.9,369.3c-0.2,0.3-0.2,0.7-0.3,1c-0.3,0.7-0.2,1.2,0.5,1.8c0.5,0.5,1.2,1,1.7,1
		c0.7-0.3,1.2-0.5,1.7-0.7c0.2-0.7,0.5-1.3,0.7-1.8c-0.3-0.5-0.5-1-0.7-1.5c-0.7-0.2-1.2-0.5-1.8-0.7
		C339.9,368.9,339.4,369,338.9,369.3z"/>
	
		<radialGradient id="SVGID_14_" cx="292" cy="434" r="1062.194" gradientTransform="matrix(1.6503 0 0 1.6503 5.5549 3.476715e-02)" gradientUnits="userSpaceOnUse">
		<stop  offset="0" style="stop-color:#FFF6F1"/>
		<stop  offset="1" style="stop-color:#D6C3B4"/>
	</radialGradient>
	<path fill="url(#SVGID_14_)" d="M304.6,116.7c-0.5,0.2-1,0.5-1.5,0.7c-0.2,0.3-0.3,0.7-0.3,0.8c0.2,0.8,0.2,1.8,0.8,2.6
		c0.5,0.2,1.2,0.5,1.8,0.7c0.2-0.2,0.2-0.3,0.3-0.3c0.5-0.3,0.7-1,1.3-1.2c-0.2-0.7-0.2-1.2-0.3-1.8c0-0.2,0-0.5,0-0.7
		C306.1,117.2,305.3,117,304.6,116.7z"/>
	
		<radialGradient id="SVGID_15_" cx="292" cy="434" r="1062.194" gradientTransform="matrix(1.6503 0 0 1.6503 5.5549 3.476715e-02)" gradientUnits="userSpaceOnUse">
		<stop  offset="0" style="stop-color:#FFF6F1"/>
		<stop  offset="1" style="stop-color:#D6C3B4"/>
	</radialGradient>
	<path fill="url(#SVGID_15_)" d="M242.9,460.3c0.2-0.5,0.5-1,0-1.5c-0.3-0.3-0.2-0.8-0.3-1.3c-0.7-0.2-1.3-0.5-1.8-0.7
		c-0.7,0.3-1.2,0.5-1.7,0.7c-0.2,0.7-0.5,1.3-0.7,1.8c0.2,0.8,0.8,1,1.2,1.7c0.2,0.2,0.5,0.2,0.8,0.3
		C241.4,461.1,242,460.6,242.9,460.3z"/>
	
		<radialGradient id="SVGID_16_" cx="292" cy="434" r="1062.194" gradientTransform="matrix(1.6503 0 0 1.6503 5.5549 3.476715e-02)" gradientUnits="userSpaceOnUse">
		<stop  offset="0" style="stop-color:#FFF6F1"/>
		<stop  offset="1" style="stop-color:#D6C3B4"/>
	</radialGradient>
	<path fill="url(#SVGID_16_)" d="M264.8,433.1c0-0.3,0.3-0.8,0.2-1.3c-0.2-0.3,0-0.8-0.2-1.2c-0.2-0.2-0.5-0.3-0.7-0.5
		c0.2-0.2,0.5-0.2,0.7-0.3c-0.2-0.3-0.3-0.5-0.5-0.8c-0.5,0.2-1,0.3-1.2,1c-0.2,0.8-0.8,0.2-1,0.5c-0.3,0.7-1,0.8-1.5,1
		c0.2,0.3,0.3,0.8,0.7,0.8c0.7,0.3,0,0.8,0.5,1.2c0.5,0.2,0.8,0.3,1.3,0.5C263.7,433.7,264.3,433.7,264.8,433.1z"/>
	
		<radialGradient id="SVGID_17_" cx="292" cy="434" r="1062.194" gradientTransform="matrix(1.6503 0 0 1.6503 5.5549 3.476715e-02)" gradientUnits="userSpaceOnUse">
		<stop  offset="0" style="stop-color:#FFF6F1"/>
		<stop  offset="1" style="stop-color:#D6C3B4"/>
	</radialGradient>
	<path fill="url(#SVGID_17_)" d="M316,422.3c0.3,0,0.5,0.5,0.8,0.8c0.7-0.3,1.3-0.5,1.7-1c0.2-0.5,0.3-0.8,0.3-1.3s-0.2-1-0.3-1.5
		c0-0.2-0.2-0.2-0.2-0.3c-0.7-0.2-1.2-0.5-1.8-0.7c-0.2,0.2-0.2,0.5-0.3,0.7c-0.8,0.3-0.8,1-1,1.7
		C315.7,421.2,314.8,422.2,316,422.3z"/>
	
		<radialGradient id="SVGID_18_" cx="292" cy="434" r="1062.194" gradientTransform="matrix(1.6503 0 0 1.6503 5.5549 3.476715e-02)" gradientUnits="userSpaceOnUse">
		<stop  offset="0" style="stop-color:#FFF6F1"/>
		<stop  offset="1" style="stop-color:#D6C3B4"/>
	</radialGradient>
	<path fill="url(#SVGID_18_)" d="M334.5,81c0.2,0,0.5,0.2,0.7,0.2c0.8,0.2,1-0.8,1.7-1c0.5-0.2,0.2-0.7,0.2-1c0-0.5-0.3-1-0.2-1.3
		c0.3-0.7-0.5-0.7-0.7-1c-0.2-0.7-0.7,0-0.8-0.2c-0.5-0.2-1,0-1.2,0.3c-0.3,0.3-0.3,0.8-0.5,1.3l0.2,0.2
		C333.6,79.5,334,80.2,334.5,81z"/>
	
		<radialGradient id="SVGID_19_" cx="292" cy="434" r="1062.194" gradientTransform="matrix(1.6503 0 0 1.6503 5.5549 3.476715e-02)" gradientUnits="userSpaceOnUse">
		<stop  offset="0" style="stop-color:#FFF6F1"/>
		<stop  offset="1" style="stop-color:#D6C3B4"/>
	</radialGradient>
	<path fill="url(#SVGID_19_)" d="M313,416.2c-0.7,0.2-1,0.7-1.7,0.5c0,0-0.5,0.3-0.3,0.5c0.2,0.7,0,1.5,0.5,2c0.3,0.3,1,0.5,1.3,0.7
		c0.3-0.2,0.7-0.3,1-0.5v-0.2c0.5-1,0.5-1.8-0.5-2.3C313,416.5,313,416.4,313,416.2z"/>
	
		<radialGradient id="SVGID_20_" cx="292" cy="434" r="1062.194" gradientTransform="matrix(1.6503 0 0 1.6503 5.5549 3.476715e-02)" gradientUnits="userSpaceOnUse">
		<stop  offset="0" style="stop-color:#FFF6F1"/>
		<stop  offset="1" style="stop-color:#D6C3B4"/>
	</radialGradient>
	<path fill="url(#SVGID_20_)" d="M231.8,480.9c-0.8,0.3-1.3,0.5-1.8,0.7c0,0.3,0,0.5,0.2,0.8c0,0.2,0.2,0.3,0.2,0.5s0,0.5,0,0.7
		c0.7,0.2,1.3,0.5,1.8,0.7c0.3-0.2,0.5-0.3,0.8-0.5c0.2-0.5,0.3-0.8,0.5-1.3C233.1,481.2,232.3,480.9,231.8,480.9z"/>
	
		<radialGradient id="SVGID_21_" cx="292" cy="434" r="1062.194" gradientTransform="matrix(1.6503 0 0 1.6503 5.5549 3.476715e-02)" gradientUnits="userSpaceOnUse">
		<stop  offset="0" style="stop-color:#FFF6F1"/>
		<stop  offset="1" style="stop-color:#D6C3B4"/>
	</radialGradient>
	<path fill="url(#SVGID_21_)" d="M111.5,75.6c1,0.2,1.5,0.8,2.1,1.5c0.8,0.8,1.8,0.7,2.1-0.7c0-0.2,0-0.5-0.2-0.5
		c-0.7-0.2-0.7-1.2-1.5-1c-0.8-0.5-1.8,0-2.6-0.3c0,0-0.2,0.2-0.3,0.3C111.2,75.3,111.2,75.6,111.5,75.6z"/>
	
		<radialGradient id="SVGID_22_" cx="292" cy="434" r="1062.194" gradientTransform="matrix(1.6503 0 0 1.6503 5.5549 3.476715e-02)" gradientUnits="userSpaceOnUse">
		<stop  offset="0" style="stop-color:#FFF6F1"/>
		<stop  offset="1" style="stop-color:#D6C3B4"/>
	</radialGradient>
	<path fill="url(#SVGID_22_)" d="M242.9,87c0.2-0.2,0.3-0.3,0.7-0.5c0.2-0.2,0.5-0.2,0.7-0.3c-0.2-0.3-0.2-0.5-0.2-0.8
		c0-0.2,0-0.5-0.2-0.7c-0.7-0.2-0.7-0.8-1-1.3c-0.2-0.3-0.5-0.3-0.8-0.2c-0.2,0.2-0.5,0.2-0.7,0.3c-0.2,0.5-0.3,1-0.5,1.3
		C241.4,85.8,242,86.3,242.9,87z"/>
	
		<radialGradient id="SVGID_23_" cx="292" cy="434" r="1062.194" gradientTransform="matrix(1.6503 0 0 1.6503 5.5549 3.476715e-02)" gradientUnits="userSpaceOnUse">
		<stop  offset="0" style="stop-color:#FFF6F1"/>
		<stop  offset="1" style="stop-color:#D6C3B4"/>
	</radialGradient>
	<path fill="url(#SVGID_23_)" d="M364,424.5c0.5-0.2,0.8-0.7,1-1c-0.2-0.7-0.3-1.2-0.5-1.5c-0.7-0.2-1.2-0.7-1.8-0.2
		c-0.5,0.3-0.5,0.7-0.7,1.2c0.2,0.3,0.3,0.8,0.7,1.3C362.9,424.5,363.5,424.6,364,424.5z"/>
	
		<radialGradient id="SVGID_24_" cx="292" cy="434" r="1062.194" gradientTransform="matrix(1.6503 0 0 1.6503 5.5549 3.476715e-02)" gradientUnits="userSpaceOnUse">
		<stop  offset="0" style="stop-color:#FFF6F1"/>
		<stop  offset="1" style="stop-color:#D6C3B4"/>
	</radialGradient>
	<path fill="url(#SVGID_24_)" d="M440.4,154c0.5,0.2,0.7,0.3,1,0.3c0.3-0.2,0.7-0.3,0.8-0.5c0.2-0.5,0.3-0.8,0.5-1.3
		c0-1-0.8-1.3-1.7-1.5c-0.7-0.2-1.5,0.8-1.2,1.5C440.1,153.3,440.3,153.6,440.4,154z"/>
	
		<radialGradient id="SVGID_25_" cx="292" cy="434" r="1062.194" gradientTransform="matrix(1.6503 0 0 1.6503 5.5549 3.476715e-02)" gradientUnits="userSpaceOnUse">
		<stop  offset="0" style="stop-color:#FFF6F1"/>
		<stop  offset="1" style="stop-color:#D6C3B4"/>
	</radialGradient>
	<path fill="url(#SVGID_25_)" d="M272.7,423.5c-0.5,0.5-0.5,1-0.7,1.5c0,0.8,1,1,1.2,1.7c0.5-0.2,0.8-0.3,1.3-0.7
		c0.3-0.2,0.3-0.3,0.3-0.8c0-0.3-0.2-0.7-0.2-1C274.1,423.8,273.4,423.6,272.7,423.5z"/>
	
		<radialGradient id="SVGID_26_" cx="292" cy="434" r="1062.194" gradientTransform="matrix(1.6503 0 0 1.6503 5.5549 3.476715e-02)" gradientUnits="userSpaceOnUse">
		<stop  offset="0" style="stop-color:#FFF6F1"/>
		<stop  offset="1" style="stop-color:#D6C3B4"/>
	</radialGradient>
	<path fill="url(#SVGID_26_)" d="M279.8,472.5c-0.3,0.3-0.8,0-1.2,0.2c-0.2,0.5-0.3,1-0.5,1.5c0.3,0.2,0.5,0.3,0.7,0.7
		c0.2,0.3,0.5,0.5,1,0.3c0.3-0.2,0.7-0.2,1.2-0.2c0.2-0.3,0.2-0.7,0.3-1c-0.2-0.3-0.5-0.8-0.7-1.2
		C280.5,472.5,280.2,472.3,279.8,472.5z"/>
	
		<radialGradient id="SVGID_27_" cx="292.0003" cy="434" r="1062.1952" gradientTransform="matrix(1.6503 0 0 1.6503 5.5549 3.476715e-02)" gradientUnits="userSpaceOnUse">
		<stop  offset="0" style="stop-color:#FFF6F1"/>
		<stop  offset="1" style="stop-color:#D6C3B4"/>
	</radialGradient>
	<path fill="url(#SVGID_27_)" d="M235.6,527.3c-0.5-0.2-0.8,0-1.5,0.3c-0.2,0.7-0.5,1.2-0.7,1.8c0,0,0,0.2,0.2,0.2
		c0.7,0.5,1.5,0.7,2.3,0.2c0.2-0.5,0.3-0.8,0.5-1.3C236.3,527.9,236.3,527.4,235.6,527.3z"/>
	
		<radialGradient id="SVGID_28_" cx="292.0002" cy="434" r="1062.1943" gradientTransform="matrix(1.6503 0 0 1.6503 5.5549 3.476715e-02)" gradientUnits="userSpaceOnUse">
		<stop  offset="0" style="stop-color:#FFF6F1"/>
		<stop  offset="1" style="stop-color:#D6C3B4"/>
	</radialGradient>
	<path fill="url(#SVGID_28_)" d="M419,463.3c0.7-0.2,1.2-0.5,1.2-1.3c0-0.5-0.5-1-1.3-1.3s-0.7,0.5-1,0.7c-0.5,0.2-0.3,0.3-0.2,0.7
		c0.2,0.3,0,0.5,0,0.8C418,462.9,418.5,463.1,419,463.3z"/>
	
		<radialGradient id="SVGID_29_" cx="292" cy="434" r="1062.194" gradientTransform="matrix(1.6503 0 0 1.6503 5.5549 3.476715e-02)" gradientUnits="userSpaceOnUse">
		<stop  offset="0" style="stop-color:#FFF6F1"/>
		<stop  offset="1" style="stop-color:#D6C3B4"/>
	</radialGradient>
	<path fill="url(#SVGID_29_)" d="M151.8,64.5c0.5,0.2,0.8,0.3,1.3,0.5c0.3-0.2,0.7-0.3,0.8-0.5c-0.3-0.5-0.5-1-0.8-1.5
		c-0.7-0.2-1.5-0.5-2.3-0.8c-0.3,0.3-0.5,0.7-0.2,0.8C151.4,63.4,151.4,64,151.8,64.5z"/>
	
		<radialGradient id="SVGID_30_" cx="292" cy="434" r="1062.194" gradientTransform="matrix(1.6503 0 0 1.6503 5.5549 3.476715e-02)" gradientUnits="userSpaceOnUse">
		<stop  offset="0" style="stop-color:#FFF6F1"/>
		<stop  offset="1" style="stop-color:#D6C3B4"/>
	</radialGradient>
	<path fill="url(#SVGID_30_)" d="M300,291.8c0.2-0.5,0.3-1,0.5-1.5c-1.2-1-1.2-1-2-1.2c-0.5,0.8-0.7,1.5,0,2.3
		C299,291.6,299.3,291.9,300,291.8z"/>
	
		<radialGradient id="SVGID_31_" cx="292" cy="434" r="1062.194" gradientTransform="matrix(1.6503 0 0 1.6503 5.5549 3.476715e-02)" gradientUnits="userSpaceOnUse">
		<stop  offset="0" style="stop-color:#FFF6F1"/>
		<stop  offset="1" style="stop-color:#D6C3B4"/>
	</radialGradient>
	<path fill="url(#SVGID_31_)" d="M441.6,90.9c0.5,0.3,0.8,0.2,1-0.5c0-0.2,0.3-0.2,0.5-0.3c-0.2-0.5-0.5-1-0.7-1.5
		c-0.3-0.2-0.7-0.2-1.2-0.3c-0.2,0.5-0.3,1-0.5,1.3C440.8,90.1,441.1,90.6,441.6,90.9z"/>
	
		<radialGradient id="SVGID_32_" cx="292" cy="434" r="1062.194" gradientTransform="matrix(1.6503 0 0 1.6503 5.5549 3.476715e-02)" gradientUnits="userSpaceOnUse">
		<stop  offset="0" style="stop-color:#FFF6F1"/>
		<stop  offset="1" style="stop-color:#D6C3B4"/>
	</radialGradient>
	<path fill="url(#SVGID_32_)" d="M322.9,92.1c0.2,0,0.3-0.2,0.3-0.2c-0.2-0.5-0.2-1-0.3-1.5c-0.2-0.7-0.5-0.7-1-0.3
		c-0.7,0.3-0.8,1-0.7,1.5C321.6,92.3,322.1,92.4,322.9,92.1z"/>
	
		<radialGradient id="SVGID_33_" cx="292" cy="434" r="1062.194" gradientTransform="matrix(1.6503 0 0 1.6503 5.5549 3.476715e-02)" gradientUnits="userSpaceOnUse">
		<stop  offset="0" style="stop-color:#FFF6F1"/>
		<stop  offset="1" style="stop-color:#D6C3B4"/>
	</radialGradient>
	<path fill="url(#SVGID_33_)" d="M230.2,469.5c0.2,0,0.2-0.3,0.2-0.5c-0.2-0.5-0.3-1-1-1.2c-0.5-0.2-0.8,0.2-1.2,0.3
		c-0.2,0.2-0.2,0.5-0.3,1c0.5,0.2,0.8,0.3,1.2,0.5C229.5,470,229.8,469.7,230.2,469.5z"/>
	
		<radialGradient id="SVGID_34_" cx="292" cy="434" r="1062.194" gradientTransform="matrix(1.6503 0 0 1.6503 5.5549 3.476715e-02)" gradientUnits="userSpaceOnUse">
		<stop  offset="0" style="stop-color:#FFF6F1"/>
		<stop  offset="1" style="stop-color:#D6C3B4"/>
	</radialGradient>
	<path fill="url(#SVGID_34_)" d="M305.3,254.3c-0.7-0.7-1.3-0.5-1.8,0s-0.3,1.2,0,1.7c0.3,0,0.8-0.2,1.3-0.2
		C305.1,255.3,305.4,254.8,305.3,254.3z"/>
	
		<radialGradient id="SVGID_35_" cx="292" cy="434" r="1062.194" gradientTransform="matrix(1.6503 0 0 1.6503 5.5549 3.476715e-02)" gradientUnits="userSpaceOnUse">
		<stop  offset="0" style="stop-color:#FFF6F1"/>
		<stop  offset="1" style="stop-color:#D6C3B4"/>
	</radialGradient>
	<path fill="url(#SVGID_35_)" d="M280.5,304.3c0.3-0.2,0.5-0.3,0.8-0.5c-0.2-0.3-0.3-0.7-0.5-1c-0.2-0.7-0.7-0.7-1.3-0.7
		c-0.3,0.5-0.5,0.8-0.3,1.5C279.5,304,280,304,280.5,304.3z"/>
	
		<radialGradient id="SVGID_36_" cx="292" cy="434" r="1062.194" gradientTransform="matrix(1.6503 0 0 1.6503 5.5549 3.476715e-02)" gradientUnits="userSpaceOnUse">
		<stop  offset="0" style="stop-color:#FFF6F1"/>
		<stop  offset="1" style="stop-color:#D6C3B4"/>
	</radialGradient>
	<path fill="url(#SVGID_36_)" d="M307.9,420c-0.2,0.5-0.3,1-0.7,1.7c0.3,0.2,0.7,0.2,0.8,0.3c0.5,0.2,1.2-0.3,1.3-0.7
		c0-0.3-0.3-1-0.8-1.2C308.4,420.2,308.2,420,307.9,420z"/>
	
		<radialGradient id="SVGID_37_" cx="292" cy="434" r="1062.194" gradientTransform="matrix(1.6503 0 0 1.6503 5.5549 3.476715e-02)" gradientUnits="userSpaceOnUse">
		<stop  offset="0" style="stop-color:#FFF6F1"/>
		<stop  offset="1" style="stop-color:#D6C3B4"/>
	</radialGradient>
	<path fill="url(#SVGID_37_)" d="M308.4,271.6c0.2-0.3,0.3-0.7,0.3-1s-0.2-0.7-0.3-0.8c-0.2-0.2-0.3-0.2-0.5-0.2s-0.5,0.2-0.7,0.3
		c-0.3,0.2-0.3,0.5-0.2,0.8C307.2,271.3,307.6,271.6,308.4,271.6z"/>
	
		<radialGradient id="SVGID_38_" cx="292" cy="434" r="1062.194" gradientTransform="matrix(1.6503 0 0 1.6503 5.5549 3.476715e-02)" gradientUnits="userSpaceOnUse">
		<stop  offset="0" style="stop-color:#FFF6F1"/>
		<stop  offset="1" style="stop-color:#D6C3B4"/>
	</radialGradient>
	<path fill="url(#SVGID_38_)" d="M289.9,151.2c0.2-0.2,0.2-0.3,0.2-0.5s0.2-0.3,0.2-0.5c0-1-0.7-1.3-1.5-0.8
		c-0.3,0.2-0.3,0.5-0.3,0.7C288.6,150.7,289.1,151.2,289.9,151.2z"/>
	
		<radialGradient id="SVGID_39_" cx="292" cy="434" r="1062.194" gradientTransform="matrix(1.6503 0 0 1.6503 5.5549 3.476715e-02)" gradientUnits="userSpaceOnUse">
		<stop  offset="0" style="stop-color:#FFF6F1"/>
		<stop  offset="1" style="stop-color:#D6C3B4"/>
	</radialGradient>
	<path fill="url(#SVGID_39_)" d="M240.1,547.1c-0.2,0.2-0.2,0.3-0.2,0.7c0,0.2,0.2,0.5,0.3,0.7c0.2,0.3,0.5,0.3,0.8,0.2
		c0.7-0.2,1-0.7,1-1.5C241.2,546.6,240.6,546.6,240.1,547.1z"/>
	
		<radialGradient id="SVGID_40_" cx="292" cy="434" r="1062.194" gradientTransform="matrix(1.6503 0 0 1.6503 5.5549 3.476715e-02)" gradientUnits="userSpaceOnUse">
		<stop  offset="0" style="stop-color:#FFF6F1"/>
		<stop  offset="1" style="stop-color:#D6C3B4"/>
	</radialGradient>
	<path fill="url(#SVGID_40_)" d="M278.7,554c-0.2,0.3-0.5,0.5-0.5,0.7c0.2,0.7,0.3,1.2,0.5,1.7c0.8-0.5,1-0.5,1-0.7
		c0.2-0.2,0.2-0.5,0.2-0.7c0-0.3-0.2-0.5-0.3-0.8C279.3,553.7,278.9,553.7,278.7,554z"/>
	
		<radialGradient id="SVGID_41_" cx="292" cy="434" r="1062.194" gradientTransform="matrix(1.6503 0 0 1.6503 5.5549 3.476715e-02)" gradientUnits="userSpaceOnUse">
		<stop  offset="0" style="stop-color:#FFF6F1"/>
		<stop  offset="1" style="stop-color:#D6C3B4"/>
	</radialGradient>
	<path fill="url(#SVGID_41_)" d="M242.7,95.1c0-0.3,0.3-0.7,0.2-1.2c-0.5-0.2-1-0.3-1.8-0.7c0.2,0.7-0.3,1,0,1.5
		C241.6,94.7,241.9,95.4,242.7,95.1z"/>
	
		<radialGradient id="SVGID_42_" cx="292" cy="434" r="1062.194" gradientTransform="matrix(1.6503 0 0 1.6503 5.5549 3.476715e-02)" gradientUnits="userSpaceOnUse">
		<stop  offset="0" style="stop-color:#FFF6F1"/>
		<stop  offset="1" style="stop-color:#D6C3B4"/>
	</radialGradient>
	<path fill="url(#SVGID_42_)" d="M266.8,432.4c-0.3,0.3-1.2,0.2-1,1c0.2,0.7,0.7,1.2,1.5,1c0-0.2,0.2-0.2,0.2-0.3
		c0.2-0.5,0.3-0.8-0.3-1C267,432.9,267,432.6,266.8,432.4z"/>
	
		<radialGradient id="SVGID_43_" cx="292" cy="434" r="1062.194" gradientTransform="matrix(1.6503 0 0 1.6503 5.5549 3.476715e-02)" gradientUnits="userSpaceOnUse">
		<stop  offset="0" style="stop-color:#FFF6F1"/>
		<stop  offset="1" style="stop-color:#D6C3B4"/>
	</radialGradient>
	<path fill="url(#SVGID_43_)" d="M115.3,57.8c0.2,0.3,0.7,0.5,1,0.5c0.2,0,0.5,0,0.5-0.3c0-1-0.7-1.5-1.5-1.3
		c-0.2,0-0.5,0.2-0.7,0.2C114.8,57.3,115.1,57.4,115.3,57.8z"/>
	
		<radialGradient id="SVGID_44_" cx="292" cy="434" r="1062.194" gradientTransform="matrix(1.6503 0 0 1.6503 5.5549 3.476715e-02)" gradientUnits="userSpaceOnUse">
		<stop  offset="0" style="stop-color:#FFF6F1"/>
		<stop  offset="1" style="stop-color:#D6C3B4"/>
	</radialGradient>
	<path fill="url(#SVGID_44_)" d="M500,326.9c-0.5,0.2-0.5,0.5-0.3,0.8c0,0.2,0.2,0.3,0.2,0.3c0.2,0.2,0.3,0.3,0.5,0.3
		c0,0,0.3-0.2,0.3-0.3c0.2-0.2,0.2-0.3,0.2-0.7c0,0,0.2-0.3,0.2-0.7c0-0.2-0.3-0.3-0.5-0.3C500.5,326.6,500.3,326.8,500,326.9z"/>
	
		<radialGradient id="SVGID_45_" cx="292" cy="434" r="1062.194" gradientTransform="matrix(1.6503 0 0 1.6503 5.5549 3.476715e-02)" gradientUnits="userSpaceOnUse">
		<stop  offset="0" style="stop-color:#FFF6F1"/>
		<stop  offset="1" style="stop-color:#D6C3B4"/>
	</radialGradient>
	<path fill="url(#SVGID_45_)" d="M319.9,272v-0.2c0.2-0.5,0-1-0.3-1.5c-0.2-0.2-0.7-0.2-0.8,0.2c-0.3,0.7-0.2,1.2,0.2,1.7
		C319.3,272.3,319.8,272.1,319.9,272z"/>
	
		<radialGradient id="SVGID_46_" cx="292" cy="434" r="1062.194" gradientTransform="matrix(1.6503 0 0 1.6503 5.5549 3.476715e-02)" gradientUnits="userSpaceOnUse">
		<stop  offset="0" style="stop-color:#FFF6F1"/>
		<stop  offset="1" style="stop-color:#D6C3B4"/>
	</radialGradient>
	<path fill="url(#SVGID_46_)" d="M318,90.4c0,0,0.2,0,0.2-0.2c0.5-0.3,0.5-0.5,0.3-0.8c-0.2-0.2-0.2-0.5-0.3-0.7
		c-0.2-0.2-0.7-0.2-0.8,0.2c-0.3,0.7-0.2,1.2,0.2,1.7C317.6,90.6,317.8,90.4,318,90.4z"/>
	
		<radialGradient id="SVGID_47_" cx="292" cy="434" r="1062.194" gradientTransform="matrix(1.6503 0 0 1.6503 5.5549 3.476715e-02)" gradientUnits="userSpaceOnUse">
		<stop  offset="0" style="stop-color:#FFF6F1"/>
		<stop  offset="1" style="stop-color:#D6C3B4"/>
	</radialGradient>
	<path fill="url(#SVGID_47_)" d="M156.1,542.1c0-0.5-0.5-0.5-0.8-0.7c0,0-0.2,0-0.5-0.2c-0.2,0.5-0.3,0.7-0.3,1c0,0.2,0,0.5,0.3,0.5
		C155.2,543,155.9,542.6,156.1,542.1z"/>
	
		<radialGradient id="SVGID_48_" cx="292" cy="434" r="1062.194" gradientTransform="matrix(1.6503 0 0 1.6503 5.5549 3.476715e-02)" gradientUnits="userSpaceOnUse">
		<stop  offset="0" style="stop-color:#FFF6F1"/>
		<stop  offset="1" style="stop-color:#D6C3B4"/>
	</radialGradient>
	<path fill="url(#SVGID_48_)" d="M287.6,82c-0.2-0.3-0.3-0.5-0.5-0.8c-0.2-0.2-0.7-0.2-0.8,0.2c-0.2,0.3-0.2,0.5-0.3,1
		c0.5,0.2,0.7,0.2,0.8,0.3C287.4,82.7,287.8,82.4,287.6,82z"/>
	
		<radialGradient id="SVGID_49_" cx="292" cy="434" r="1062.194" gradientTransform="matrix(1.6503 0 0 1.6503 5.5549 3.476715e-02)" gradientUnits="userSpaceOnUse">
		<stop  offset="0" style="stop-color:#FFF6F1"/>
		<stop  offset="1" style="stop-color:#D6C3B4"/>
	</radialGradient>
	<path fill="url(#SVGID_49_)" d="M242.5,467.5c-0.2,0-0.3,0.2-0.3,0.2c-0.5,0.3-0.7,0.5-0.7,0.8c0.2,0.3,0.5,0.3,0.8,0.3
		c0.5,0.2,0.8-0.2,1.2-0.5C243.2,468.2,242.7,468,242.5,467.5z"/>
	
		<radialGradient id="SVGID_50_" cx="292" cy="434" r="1062.194" gradientTransform="matrix(1.6503 0 0 1.6503 5.5549 3.476715e-02)" gradientUnits="userSpaceOnUse">
		<stop  offset="0" style="stop-color:#FFF6F1"/>
		<stop  offset="1" style="stop-color:#D6C3B4"/>
	</radialGradient>
	<path fill="url(#SVGID_50_)" d="M283.1,149.5c0.2,0,0.3-0.2,0.5-0.2c-0.2-0.2-0.2-0.5-0.3-0.7c-0.3-0.5-0.3-0.5-1-0.3
		c-0.2,0-0.3,0.2-0.5,0.3c0.2,0.2,0.2,0.3,0.2,0.5C282.3,149.7,282.5,149.9,283.1,149.5z"/>
	
		<radialGradient id="SVGID_51_" cx="292" cy="434" r="1062.194" gradientTransform="matrix(1.6503 0 0 1.6503 5.5549 3.476715e-02)" gradientUnits="userSpaceOnUse">
		<stop  offset="0" style="stop-color:#FFF6F1"/>
		<stop  offset="1" style="stop-color:#D6C3B4"/>
	</radialGradient>
	<path fill="url(#SVGID_51_)" d="M461.5,252c-0.2,0.5-0.2,0.7-0.3,0.8c-0.2,0.5,0.2,0.8,0.7,0.7c0.3-0.2,0.5-0.3,0.8-0.5
		c0.2-0.2,0.2-0.7-0.2-0.8C462.2,252.2,461.9,252.2,461.5,252z"/>
	
		<radialGradient id="SVGID_52_" cx="292" cy="434" r="1062.194" gradientTransform="matrix(1.6503 0 0 1.6503 5.5549 3.476715e-02)" gradientUnits="userSpaceOnUse">
		<stop  offset="0" style="stop-color:#FFF6F1"/>
		<stop  offset="1" style="stop-color:#D6C3B4"/>
	</radialGradient>
	<path fill="url(#SVGID_52_)" d="M315.8,74.4c0.3-0.3,0.3-0.7,0-0.8c-0.2-0.2-0.5-0.2-0.7-0.2c-0.3,0-0.7,0.3-0.5,0.5
		c0.2,0.3,0.3,0.5,0.5,0.8C315.3,74.6,315.5,74.4,315.8,74.4z"/>
	
		<radialGradient id="SVGID_53_" cx="292" cy="434" r="1062.194" gradientTransform="matrix(1.6503 0 0 1.6503 5.5549 3.476715e-02)" gradientUnits="userSpaceOnUse">
		<stop  offset="0" style="stop-color:#FFF6F1"/>
		<stop  offset="1" style="stop-color:#D6C3B4"/>
	</radialGradient>
	<path fill="url(#SVGID_53_)" d="M256.4,68.5c0.2,0,0.3,0,0.3-0.2c0.2-0.2,0.2-0.3,0.2-0.3c-0.3-0.3-0.7-0.7-1-1
		c-0.2,0.2-0.3,0.2-0.3,0.3C255.7,67.8,255.9,68.5,256.4,68.5z"/>
	
		<radialGradient id="SVGID_54_" cx="292" cy="434" r="1062.194" gradientTransform="matrix(1.6503 0 0 1.6503 5.5549 3.476715e-02)" gradientUnits="userSpaceOnUse">
		<stop  offset="0" style="stop-color:#FFF6F1"/>
		<stop  offset="1" style="stop-color:#D6C3B4"/>
	</radialGradient>
	<path fill="url(#SVGID_54_)" d="M111.2,358.5c-0.2,0.2-0.2,0.5,0,0.7c0,0.2,0.2,0.2,0.5,0.3c0.2,0,0.3,0.2,0.5,0
		c0.2,0,0.3-0.3,0.3-0.5C112.5,358.3,111.5,358.1,111.2,358.5z"/>
	
		<radialGradient id="SVGID_55_" cx="292" cy="434" r="1062.194" gradientTransform="matrix(1.6503 0 0 1.6503 5.5549 3.476715e-02)" gradientUnits="userSpaceOnUse">
		<stop  offset="0" style="stop-color:#FFF6F1"/>
		<stop  offset="1" style="stop-color:#D6C3B4"/>
	</radialGradient>
	<path fill="url(#SVGID_55_)" d="M321.9,39.1c0.2,0,0.5,0,0.7,0s0.2-0.3,0.2-0.3c-0.2-0.3-0.2-0.7-0.5-0.8
		C322,38.3,322,38.7,321.9,39.1C321.6,38.8,321.9,38.9,321.9,39.1z"/>
	
		<radialGradient id="SVGID_56_" cx="292" cy="434" r="1062.194" gradientTransform="matrix(1.6503 0 0 1.6503 5.5549 3.476715e-02)" gradientUnits="userSpaceOnUse">
		<stop  offset="0" style="stop-color:#FFF6F1"/>
		<stop  offset="1" style="stop-color:#D6C3B4"/>
	</radialGradient>
	<path fill="url(#SVGID_56_)" d="M328.2,319.7c-0.3,0.2-0.7,0.2-0.8,0.5c0.8,0.5,0.8,0.5,1.3,0.3C328.5,320.3,328.4,320,328.2,319.7
		z"/>
	
		<radialGradient id="SVGID_57_" cx="292" cy="434" r="1062.194" gradientTransform="matrix(1.6503 0 0 1.6503 5.5549 3.476715e-02)" gradientUnits="userSpaceOnUse">
		<stop  offset="0" style="stop-color:#FFF6F1"/>
		<stop  offset="1" style="stop-color:#D6C3B4"/>
	</radialGradient>
	<path fill="url(#SVGID_57_)" d="M469.5,522.3c-0.3-0.2-0.5,0-0.5,0.2c-0.2,0.3-0.2,0.7,0.3,0.7c0.2,0,0.3,0,0.5,0
		C470,522.7,469.8,522.3,469.5,522.3z"/>
	
		<radialGradient id="SVGID_58_" cx="292" cy="434" r="1062.194" gradientTransform="matrix(1.6503 0 0 1.6503 5.5549 3.476715e-02)" gradientUnits="userSpaceOnUse">
		<stop  offset="0" style="stop-color:#FFF6F1"/>
		<stop  offset="1" style="stop-color:#D6C3B4"/>
	</radialGradient>
	<path fill="url(#SVGID_58_)" d="M335.5,27.9c-0.2-0.3-0.2-0.7-0.5-0.8c-0.5,0.8-0.5,0.8-0.3,1.3C334.8,28.2,335.1,28.1,335.5,27.9z
		"/>
	
		<radialGradient id="SVGID_59_" cx="292" cy="434" r="1062.194" gradientTransform="matrix(1.6503 0 0 1.6503 5.5549 3.476715e-02)" gradientUnits="userSpaceOnUse">
		<stop  offset="0" style="stop-color:#FFF6F1"/>
		<stop  offset="1" style="stop-color:#D6C3B4"/>
	</radialGradient>
	<path fill="url(#SVGID_59_)" d="M418.6,366c0,0.2,0,0.5,0.3,0.5c0.3,0.2,0.5,0,0.7-0.5c-0.2-0.2-0.2-0.3-0.3-0.3
		C419,365.6,418.6,365.7,418.6,366z"/>
	
		<radialGradient id="SVGID_60_" cx="292" cy="434" r="1062.194" gradientTransform="matrix(1.6503 0 0 1.6503 5.5549 3.476715e-02)" gradientUnits="userSpaceOnUse">
		<stop  offset="0" style="stop-color:#FFF6F1"/>
		<stop  offset="1" style="stop-color:#D6C3B4"/>
	</radialGradient>
	<path fill="url(#SVGID_60_)" d="M201.9,361.3c-0.2,0.3,0,0.7,0.3,0.7c0.2,0,0.3-0.2,0.5-0.2c0.2-0.5,0-0.7-0.3-0.8
		C202.1,360.9,201.9,361.1,201.9,361.3z"/>
	
		<radialGradient id="SVGID_61_" cx="292" cy="434" r="1062.194" gradientTransform="matrix(1.6503 0 0 1.6503 5.5549 3.476715e-02)" gradientUnits="userSpaceOnUse">
		<stop  offset="0" style="stop-color:#FFF6F1"/>
		<stop  offset="1" style="stop-color:#D6C3B4"/>
	</radialGradient>
	<path fill="url(#SVGID_61_)" d="M270.3,308.1c0.3-0.2,0.3-0.5,0.2-0.8c0,0-0.2,0-0.2,0.2c-0.2,0-0.3,0.2-0.3,0.2
		c-0.3,0.2-0.3,0.3-0.2,0.5C269.8,308.1,270.1,308.1,270.3,308.1z"/>
	
		<radialGradient id="SVGID_62_" cx="292" cy="434" r="1062.194" gradientTransform="matrix(1.6503 0 0 1.6503 5.5549 3.476715e-02)" gradientUnits="userSpaceOnUse">
		<stop  offset="0" style="stop-color:#FFF6F1"/>
		<stop  offset="1" style="stop-color:#D6C3B4"/>
	</radialGradient>
	<path fill="url(#SVGID_62_)" d="M394.5,51.5h0.3c0-0.2,0.2-0.5,0-0.7c-0.2-0.3-0.5-0.3-0.8-0.2v0.2
		C394.4,51.2,394.5,51.3,394.5,51.5z"/>
	
		<radialGradient id="SVGID_63_" cx="292" cy="434" r="1062.2603" gradientTransform="matrix(1.6503 0 0 1.6503 5.5549 3.476715e-02)" gradientUnits="userSpaceOnUse">
		<stop  offset="0" style="stop-color:#FFF6F1"/>
		<stop  offset="1" style="stop-color:#D6C3B4"/>
	</radialGradient>
	<path fill="url(#SVGID_63_)" d="M217.3,563.8c-0.2,0-0.3,0.2-0.3,0.2c-0.2,0-0.2,0.2-0.2,0.3c0.2,0.2,0.2,0.2,0.3,0.3
		c0.2,0,0.3,0,0.3,0c0.3-0.2,0.3-0.5,0.2-0.8C217.5,563.6,217.3,563.6,217.3,563.8z"/>
	
		<radialGradient id="SVGID_64_" cx="292" cy="434" r="1062.194" gradientTransform="matrix(1.6503 0 0 1.6503 5.5549 3.476715e-02)" gradientUnits="userSpaceOnUse">
		<stop  offset="0" style="stop-color:#FFF6F1"/>
		<stop  offset="1" style="stop-color:#D6C3B4"/>
	</radialGradient>
	<path fill="url(#SVGID_64_)" d="M442.9,313.4c0,0.2-0.2,0.5,0,0.7c0.2,0.3,0.5,0.3,0.8,0.2v-0.2c-0.2-0.2-0.2-0.5-0.3-0.7
		C443.1,313.4,442.9,313.4,442.9,313.4z"/>
	
		<radialGradient id="SVGID_65_" cx="292" cy="434" r="1062.194" gradientTransform="matrix(1.6503 0 0 1.6503 5.5549 3.476715e-02)" gradientUnits="userSpaceOnUse">
		<stop  offset="0" style="stop-color:#FFF6F1"/>
		<stop  offset="1" style="stop-color:#D6C3B4"/>
	</radialGradient>
	<path fill="url(#SVGID_65_)" d="M309.2,542.8c-0.2,0.2-0.5,0.2-0.7,0.3v0.3c0.2,0,0.5,0.2,0.7,0c0.3-0.2,0.3-0.5,0.2-0.8
		C309.4,542.8,309.2,542.8,309.2,542.8z"/>
	
		<radialGradient id="SVGID_66_" cx="292" cy="434" r="1062.194" gradientTransform="matrix(1.6503 0 0 1.6503 5.5549 3.476715e-02)" gradientUnits="userSpaceOnUse">
		<stop  offset="0" style="stop-color:#FFF6F1"/>
		<stop  offset="1" style="stop-color:#D6C3B4"/>
	</radialGradient>
	<path fill="url(#SVGID_66_)" d="M242.5,476.6c-0.2,0-0.2,0.2-0.2,0.3c0.2,0.2,0.2,0.2,0.3,0.3c0.2,0,0.3,0,0.3,0
		c0.3-0.2,0.3-0.5,0.2-0.8c0,0-0.2,0-0.2,0.2C242.9,476.5,242.7,476.5,242.5,476.6z"/>
	
		<radialGradient id="SVGID_67_" cx="292" cy="434" r="1062.194" gradientTransform="matrix(1.6503 0 0 1.6503 5.5549 3.476715e-02)" gradientUnits="userSpaceOnUse">
		<stop  offset="0" style="stop-color:#FFF6F1"/>
		<stop  offset="1" style="stop-color:#D6C3B4"/>
	</radialGradient>
	<path fill="url(#SVGID_67_)" d="M178.2,105c0,0,0-0.2-0.2-0.2c0-0.2-0.2-0.3-0.2-0.3c-0.2-0.3-0.3-0.3-0.5-0.2
		c-0.2,0.2-0.2,0.5,0,0.7C177.5,105.1,177.9,105.1,178.2,105z"/>
	
		<radialGradient id="SVGID_68_" cx="292" cy="434" r="1062.194" gradientTransform="matrix(1.6503 0 0 1.6503 5.5549 3.476715e-02)" gradientUnits="userSpaceOnUse">
		<stop  offset="0" style="stop-color:#FFF6F1"/>
		<stop  offset="1" style="stop-color:#D6C3B4"/>
	</radialGradient>
	<path fill="url(#SVGID_68_)" d="M55.7,355.3c0,0.2,0,0.5,0,0.7c0.3-0.2,0.7-0.3,0.8-0.5c0,0,0-0.3-0.2-0.3
		C56.1,355,55.7,355,55.7,355.3z"/>
	
		<radialGradient id="SVGID_69_" cx="292" cy="434" r="1062.194" gradientTransform="matrix(1.6503 0 0 1.6503 5.5549 3.476715e-02)" gradientUnits="userSpaceOnUse">
		<stop  offset="0" style="stop-color:#FFF6F1"/>
		<stop  offset="1" style="stop-color:#D6C3B4"/>
	</radialGradient>
	<path fill="url(#SVGID_69_)" d="M53.7,265c0,0.2,0,0.3,0.2,0.7c0.2-0.2,0.3-0.3,0.3-0.5s0-0.3-0.2-0.3
		C53.9,264.9,53.9,264.9,53.7,265z"/>
	
		<radialGradient id="SVGID_70_" cx="292" cy="434" r="1062.194" gradientTransform="matrix(1.6503 0 0 1.6503 5.5549 3.476715e-02)" gradientUnits="userSpaceOnUse">
		<stop  offset="0" style="stop-color:#FFF6F1"/>
		<stop  offset="1" style="stop-color:#D6C3B4"/>
	</radialGradient>
	<path fill="url(#SVGID_70_)" d="M577.4,336.7c-0.2-0.2-0.2-0.2-0.3-0.2s-0.3,0-0.5,0.2c0.2,0.2,0.2,0.3,0.3,0.3s0.3,0,0.5,0
		c0,0,0.2,0,0.2-0.2C577.4,336.8,577.4,336.7,577.4,336.7z"/>
	
		<radialGradient id="SVGID_71_" cx="292" cy="434" r="1062.194" gradientTransform="matrix(1.6503 0 0 1.6503 5.5549 3.476715e-02)" gradientUnits="userSpaceOnUse">
		<stop  offset="0" style="stop-color:#FFF6F1"/>
		<stop  offset="1" style="stop-color:#D6C3B4"/>
	</radialGradient>
	<path fill="url(#SVGID_71_)" d="M162.2,78.1c0.2,0,0.5,0,0.7,0c-0.2-0.2-0.3-0.3-0.5-0.3s-0.3,0-0.3,0.2
		C162,77.9,162,78.1,162.2,78.1z"/>
	
		<radialGradient id="SVGID_72_" cx="292" cy="434" r="1062.194" gradientTransform="matrix(1.6503 0 0 1.6503 5.5549 3.476715e-02)" gradientUnits="userSpaceOnUse">
		<stop  offset="0" style="stop-color:#FFF6F1"/>
		<stop  offset="1" style="stop-color:#D6C3B4"/>
	</radialGradient>
	<path fill="url(#SVGID_72_)" d="M248.7,438.2C248.5,438.2,248.5,438.3,248.7,438.2c0,0.5,0.5,0.5,0.7,0.3v-0.2
		C249.3,438.2,248.8,438,248.7,438.2z"/>
	
		<radialGradient id="SVGID_73_" cx="292" cy="434" r="1062.194" gradientTransform="matrix(1.6503 0 0 1.6503 5.5549 3.476715e-02)" gradientUnits="userSpaceOnUse">
		<stop  offset="0" style="stop-color:#FFF6F1"/>
		<stop  offset="1" style="stop-color:#D6C3B4"/>
	</radialGradient>
	<path fill="url(#SVGID_73_)" d="M150.8,385.2c0,0,0.3-0.2,0.5-0.2c0-0.2,0-0.3,0-0.5h-0.2C150.6,384.5,150.5,385,150.8,385.2z"/>
	
		<radialGradient id="SVGID_74_" cx="292" cy="434" r="1062.194" gradientTransform="matrix(1.6503 0 0 1.6503 5.5549 3.476715e-02)" gradientUnits="userSpaceOnUse">
		<stop  offset="0" style="stop-color:#FFF6F1"/>
		<stop  offset="1" style="stop-color:#D6C3B4"/>
	</radialGradient>
	<path fill="url(#SVGID_74_)" d="M228.7,506.3c-2-4.6-3.5-9.4-4.1-14.5c0-0.3-0.2-0.7-0.2-1c0.2,0,0.3,0.2,0.5,0.2
		c0.8-0.3,1.5-0.7,2.1-1c-0.2-0.7,0-1.5-0.5-2c-0.3-0.2-0.7-0.3-1.2-0.3h-0.2c-0.5-0.2-0.8,0-1.2,0.2c-0.5-3.6-0.7-7.3-0.8-10.7
		c-0.5-7.6-1.3-15-2.8-22.3s-2.5-14.5-3.1-22.1c-0.5-2.8-1.2-5.6-2.1-8.4c-1-2.8-2.3-5.4-3.6-8.1c-1-2.5-2.3-4.8-4.1-6.9
		c-1.7-2.1-3.8-4-6.3-5.4c-3.5-1.8-6.8-3.3-10.1-4.3c-3.3-1.2-6.9-0.8-11.1,0.8c-2.6,1.2-4.3,3-5.1,5.1c-1,3.5-2.5,6.4-4.5,9.2
		c-2,2.8-4.3,5.3-6.9,7.8c-5,4.8-9.9,9.9-14.5,15.2c-4.6,5.3-8.3,11.2-11.1,17.8c-0.3,0.7-1.2,1.5-2.5,2.8c-0.8-1.7-1.5-3-1.8-4
		v-1.2c0.3-6.3-0.2-12.2-1.5-18.2c-1.3-5.6-2.5-11.4-3.5-17.3c0.3,0,0.7,0,0.8-0.2c0,0,0-0.2,0.2-0.2c0.2-0.2,0.3-0.3,0.7-0.5
		c0.5-0.2,0.5-0.5,0.5-0.8c-0.5-0.5-0.8-1-1.3-1.3c-0.3-0.2-0.7-0.5-1-0.5c-0.2,0-0.3,0-0.5,0c-1.2-3.3-3.3-5.9-6.6-7.4
		c-3.6-1.8-7.3-3.6-10.9-5.6c-3.6-1.8-7.3-3.6-10.9-5.3c-2.1-1-4.5-1.8-6.4-2.3c-2.1-0.7-4.3-1.3-6.4-2.1c-0.3-0.2-1-0.2-1.5-0.2
		c-0.7,0.2-1.2,0.2-1.5,0.2c0.2,0.3,0.3,0.8,0.3,1.3s0.2,1,0.3,1.3c0.3,1,0.8,2,1.3,2.8s0.7,1.8,0.5,2.8c-0.2,6.4-0.5,12.9-1,19.5
		s-0.7,13-0.7,19.5c-0.2,10.4-0.3,21-0.7,31.2c-0.3,10.4-1,21-2.1,31.5c-0.3,3.3-0.7,6.4-0.8,9.6s-0.7,6.3-1.2,9.6
		c-1.7,7.6-3.3,15.2-5,22.4c-1.7,7.4-3.3,14.7-4.6,22.3c-0.8,4-1.2,8.1-1.3,12.2s-0.2,8.3-0.3,12.2c-0.2,3.6,1.5,6.6,4.8,8.7
		c2.5,1.3,4.8,2.8,7.1,4.1c2.3,1.3,4.6,3,6.8,4.5c4.5,3.1,9.4,4,15.2,2.3c9.2-2.5,14.7-8.7,16.5-18.8c0.3-1.5,0.8-2.8,1-4.1
		c0.3-1.3,0.7-2.6,1-3.8c1-2.8,2-5.8,3-8.6c1-3,1.8-5.8,2.3-8.6c1-4,1.8-8.1,2.6-11.9c0.8-4,1.7-7.8,2.6-11.7
		c0.7-2.1,0.8-4.5,0.7-6.8c-0.2-2.3,0.2-4.6,0.7-6.8c1.8-6.3,2.5-12.5,2-18.8s-0.2-12.5,0.8-18.6c0.3-2.1,0.7-4.3,0.8-6.3
		c0.2-2,0.5-4,0.8-6.1c1-3.5,2.1-6.8,3.3-9.9s2.3-6.3,3.6-9.6c0.7-2,1.7-3.8,3-5.1c3-3.5,6.3-6.6,9.7-9.4c3.5-2.8,6.1-6.4,7.6-10.9
		c0.2-0.3,0.5-0.8,0.8-1.2c0.3-0.3,0.7-0.8,1-1.2c1.3-1.2,2.6-2.5,4-3.8c1.2-1.3,2.3-2.8,3.3-4.6c0.7-1.2,1.5-2.3,2.8-3.3
		s2.5-2,3.5-3l4.5-4.6c0.3-0.7,0.8-1.2,1.5-1.8c0.7-0.7,1.2-1.2,1.5-1.8c0.3,0.7,0.8,1.3,1.3,2s1,1.3,1.3,2c0.8,1.8,1.5,3.6,1.8,5.4
		c0.8,5,1.7,9.9,2.6,14.9c1,4.8,1.7,9.7,2.3,14.9c0.8,5.4,1.3,10.9,1.7,16.3c0.3,5.4,0.8,10.9,1.7,16.3c0.7,5.6,0.5,11.2-0.5,16.7
		c-1,5.4-2.3,10.7-3.8,16c-0.3,1-1.5,2.3-3,4c-2.1,2.1-4.5,4.5-6.9,6.8c-2.5,2.3-4.8,4.6-7.3,6.8c-1,0.8-2,1.7-2.6,2.5
		c-0.8,0.8-1.7,1.7-2.6,2.5c-5.9,4.6-12.2,9.1-18.3,13.4c-0.3,0.2-0.7,0.5-1,0.7c-0.2,0-0.3-0.2-0.3-0.2c-0.8,0.3-1.3,0.5-1.7,0.5
		c-0.3,0.5-0.3,0.8-0.3,1.2c-4.8,3.8-9.2,8.3-13,13.4c-1.7,2.1-2.6,4.3-3.3,6.3s-0.3,4.1,0.7,6.8c1,2.8,2,5.6,3,8.3
		c1,2.6,2.1,5.4,3.3,8.3c0.3,1.2,1.3,2,2.8,2.5c3,1.7,5.3,3.6,6.6,6.3c1.5,2.6,3.6,3.5,6.6,2.6c2.1-0.8,4.5-1.5,6.9-2.1
		c2.5-0.7,4.8-1.2,6.9-1.5c7.6-1.5,14-5.3,19.3-11.6c4-4.6,8.3-8.9,12.7-13s8.1-8.7,10.9-14.2c7.1-7.9,11.4-16.5,12.9-25.7
		c1.7-9.2,1.8-19,0.8-29C228.8,507.3,228.7,506.8,228.7,506.3z M179.7,544.3c-1.2,2.5-2.3,4.8-3.5,7.3s-2.3,4.8-3.5,7.3
		c-1.8,4-4.1,7.6-6.9,10.9c-2.8,3.3-5.8,6.4-9.1,9.4c-1,1-2.1,1.8-3.3,2.6c-1.2,0.7-2.6,0.7-4.3-0.2c-3.5-1.3-5.1-4.5-5-9.4
		c0-0.2,0-0.7,0-1.2c0-0.7,0.2-1.2,0.7-1.5c1.8-2.1,3.6-4.6,5.3-6.9c1.7-2.5,3.6-4.6,5.9-6.4c3.5-2.5,7.1-4.6,10.9-6.8
		c3.8-2,7.6-4.1,11.2-6.4c0.3-0.2,0.7-0.3,0.8-0.3c0.2,0,0.3-0.2,0.7-0.3c0,0.3,0,0.7,0.2,0.8C179.8,543.6,179.8,544,179.7,544.3z"
		/>
	
		<radialGradient id="SVGID_75_" cx="292" cy="434" r="1062.194" gradientTransform="matrix(1.6503 0 0 1.6503 5.5549 3.476715e-02)" gradientUnits="userSpaceOnUse">
		<stop  offset="0" style="stop-color:#FFF6F1"/>
		<stop  offset="1" style="stop-color:#D6C3B4"/>
	</radialGradient>
	<path fill="url(#SVGID_75_)" d="M561.2,406.8c-0.3-2.1-2.6-4.8-3.3-6.8l-1-0.7c-0.3-0.2-0.7,0-1,0c-4,1.7-5.3,10.7-2.1,21.6
		c1,5.4,1.3,9.9,1.8,14c1.3,15.5,0,29.2-4.1,44.1c-0.7,3.1-5,6.8-7.8,7.9c-3.1,1.3-12.4,2.3-14.9,0.5c-11.4-8.3-20-21.3-25.6-34.3
		c-1.5-3.3-2-6.1,0-9.2c6.4-11.9,6.1-28.6,0.8-41.1c-3.1-7.3-11.6-6.9-17.7-4.3c-27.9,11.9-33.5,33.7-27.2,58.4
		c-0.2,0.8-0.2,1.7-0.3,2.5c-0.5,2.6-0.3,5.8-0.5,8.6c-0.2,1.7-1.8,24.3-2.3,25.9c0,1.3,0,2.5-0.2,3.8c-1,6.6-0.8,11.9-2.3,18.2
		c-0.3,2-0.5,4.1-0.8,5.9c-1.2,4.1-5.4,10.9-9.6,12c-5.3,1.5-5.3-1-8.9-2.6c-0.8-0.5-1.2-0.7-2-1.3c-1.3-1.5-5.4-9.7-6.1-11.9
		c-0.5-2-0.5-4-1-5.9c-0.7-2.6-1.7-5.1-2.8-7.8c-1.5-5.3-2.8-10.2-4.1-15.2c-3.3-11.9-5-23.9-6.8-36.3c-0.7-3.8-0.8-7.9-1.7-12
		c-0.5-1.8-1.3-3.6-1.8-5.8c-0.2-0.7-0.3-1.2-0.2-1.8c-0.8-5.4-2.6-10.6-4-15.5c-1-3.8-2.3-7.3-3.3-11.1c-0.3-1.2,0.2-2,0.8-2.8
		c2-1.8,14.5-9.6,18.6-11.1c5.1-2,18-6.4,16-13.5c-1.2-4.1-1.5-3.3-5-2.3c-2,0.5-4.5,0.8-6.4,1.8c-4,1.7-0.7,2.1-5.1,3.3
		c-0.7,0.2-1.8,0.5-2.1,0c-0.7-0.2-1.3,0-1.8,0.2c-1.2,0.3-2.3,1-3.5,1.3c-5.9,2.5-5.4,2.8-11.6,4.5c-2.3,0.7-2.3-0.7-3-2.6
		l-1.7-6.1l-1.2-4.3c-2-6.9-7.9-14.2-16.2-13.2c-2.5,0.3-5.1-0.2-7.6-0.5c-2-0.2-5.8-0.7-7.6-0.2c-0.8,0.2-1.7,0.8-1.7,2
		c0,2.1-1,4.6-0.3,6.6c0.5,1.8,1.8,2.3,2,2.8c0.2,0.7,0.3,1.2,0.2,1.8c0,7.9-1.8,17.3,0.2,24.9c0.5,1.8,0,2.1-1.5,2.8
		c-2.6,0.7-5,1.7-7.1,2.6c-3.5,1.3-6.3,3.3-9.4,4.8c-3.1,1.2,3.3-1.8,0.5-0.8c-6.4,2.6-1,2.1-7.1,4.8c-0.8,0.2-4.6,2.5-4.5,3.1
		c0.2,0.8,4,4,4.8,4c3,0.5,5,1.2,7.9,0.3c8.1-2.1,6.8-1.5,14.4-4.8c1.2-0.3,2.1-1.2,3.3-1.5c0.8-0.2,2,0.2,2.1,1.3
		c0.3,1.2,0,2.5,0.5,4c0.5,2,2,3.6,2.5,5.6c0.2,0.8,0.2,1.8,0.3,2.5c0.2,2.8,1,5.8,1.3,8.4c0.8,3.8,0.5,7.8,1.5,11.4
		c1.2,4.3,1.8,9.2,3.1,13.5c1.2,4,3.3,7.8,4.6,11.2c-2.6,12.7-5.3,25.3-6.4,30.4c-3.1,12.9-8.3,22.1-13.7,34.5c-1,2-1.8,4.8-4.1,5.1
		c-0.7,0-1.3-0.2-2-0.7c-0.3-0.5-0.5-1.5-0.7-2.3c-3.3-25.1-17.3-47-20.3-70.1c-0.8-5.9,0.2-11.9-0.5-17.8
		c-1.3-9.2-15.3-23.6-24.9-22.6c-2.5,0.3-4.6-0.7-6.9-1.2c-2.8-0.5-7.6-2-10.2-1.7c-3,0.3-5.4,3.1-5.6,6.3c1.2,1.3,1.8,2.5,2,4
		c0.7,4.5,0.3,9.1,0.5,13.4c-6.1-2.3-12.9-5.6-19.5-4.6c-18.8,2.5-30.5,40.9-28.9,57.6v0.2c0,0.2,0,0.3,0,0.5
		c2,15,13.9,31,30.7,28.9c11.1-1.5,23.3-24.1,29.4-33.5c10.9,13.5,9.7,73.3,44.6,68.7c8.1-1.2,14-6.4,15.8-14.4
		c2.3-3.3,5.3-6.3,7.3-9.6c4.8-7.1,14.5-35.5,15.8-43.6c0.3-2.3,1.3-5.3,2.1-8.4c0.7,2.1,1.3,4.3,1.8,6.4c0.8,3.1,1.8,6.8,2.5,10.2
		c0.3,2.1,0.5,4.3,1.2,6.3c0.7,2.6,2,5.1,2.6,7.4c1.2,4.3,1.7,8.6,3,13c1.7,5.8,5.1,11.7,8.1,17.2c1.3,2.8,5,3,7.3,4
		c4.1,1.3,8.1,3.5,12.2,4.5c3.6,0.8,7.1,0.7,10.6-0.3s8.4-2.6,10.7-5.8c1.2-1.5,4.8-6.6,5.6-8.1c1.5-3.6,3.3-5,4.6-8.4
		c0.8-1.8,2.3-4.3,3.3-7.4c3-8.4,3.5-16.3,3.6-22.3c0.3-2.3,0.3-4.5,1-6.6c0.8-2.5,0.5-25.7,0.8-28.1c0-0.2,0.2-0.5,0.2-0.8v0.2
		c11.9,27.7,38.9,57.9,72.3,43.6c5.3-2.3,7.6-5.9,11.7-9.4c15-11.7,15.3-39.4,16-56.8c0.3-6.8-1.3-13.2-1.5-19.5
		C563.7,423.3,562.4,414.9,561.2,406.8z M291.4,477.8c-2.5,6.8-4,13.9-6.8,20.5c-3,7.1-6.9,13.7-10.4,20.3c-0.7,1.7-1.8,3-2.8,4
		c-2.1,2.6-4.5,2.8-6.4-0.7c-2.3-3.6-0.7-7.8-2.3-12.9c-0.5-1.8-1.3-2.6-1.5-4.3c-0.7-2.3-0.2-4-0.3-6.6c-0.2-6.1-1.3-10.4-1.2-15.7
		c-0.2-3,1-6.3,2.1-9.1c1.5-4.8,1-8.9,4.5-12.5c1.5-2,2.6-5,4.6-6.4c2.1-1.8,4.8-2.8,7.4-4c0,0.3,0,0.7,0.2,0.8
		c3.6-2,6.6,1.8,10.1,3c0.7,0,1,2.3,1.3,3.5c0.8,3.6,1.3,7.1,2,10.7C292.4,471.5,292.5,474.6,291.4,477.8z M496.7,444.1
		c-5.4-0.3-7.9-7.8-10.4-12c1-7.6,2.5-15.5,3.8-23.3l2.3-2.3l2.3,1.7l2,4.1C500,419,504,438.7,496.7,444.1z"/>
	
		<radialGradient id="SVGID_76_" cx="292" cy="434" r="1062.194" gradientTransform="matrix(1.6503 0 0 1.6503 5.5549 3.476715e-02)" gradientUnits="userSpaceOnUse">
		<stop  offset="0" style="stop-color:#FFF6F1"/>
		<stop  offset="1" style="stop-color:#D6C3B4"/>
	</radialGradient>
	<path fill="url(#SVGID_76_)" d="M97,206.3c6.3,8.7,11.6,18.3,17,27.7c4,6.9,6.6,14.5,8.6,22.4c1.8,7.1,2.6,14.2,3.1,21.5
		c0.7,7.6-1,14.5-3.6,21.3c-0.2,0.7-0.7,1.7-1.2,2c-5.3,3.6-8.6,9.2-15.2,11.6c-2.6,1-4.1,1.3-6.6-0.8c-5.6-5-8.3-11.7-10.9-18.3
		c-1.5-4-2-6.8-1.8-11.1c0-5.8,1.2-9.4,4.1-14.4c3.1-5.4,7.6-6.1,11.1-10.9c0.5-1,1-1.3,1.8-2.5c-1.3-0.3-2-0.7-3.1-0.7
		c-0.7,0.2-1.2,0.2-1.8,0.3c-5.3,1.2-7.9,3.5-12,6.8c-4,3.6-6.8,5.6-7.8,10.7c-0.5,2.5-0.3,4-0.2,6.8c0.2,6.4,0.8,11.2,1.5,16.8
		c0.7,5.8,3.3,10.7,6.3,15.8c0.5,1.5,0.8,3,1.5,4c4,6.1,9.9,10.1,16.3,12.5c5.4,1.8,10.9,2.8,16.2,0.5c4.3-1.7,8.6-3.8,13.2-5
		c4.1-1,7.1-3.6,9.9-6.3c3.1-3,6.4-5.9,9.6-8.6c2.1-1.8,4.6-3.5,7.1-5.4c0,0,0.3-0.3,0.5-0.7c0.8-1,1.2-2,2-2.8
		c3.6-3.6,7.4-6.8,9.1-11.9c0.2-0.5,0.3-0.8,0.3-1.3c0.2,0,0.5,0.2,0.5,0.3c0.2,0.2,0.3,0.3,0.3,0.5c0.2,0.5,0.7,0.3,0.7,0.2
		c0.7-0.7,1-0.2,1.5,0.2c0.2,0.2,0.3,0.2,0.5,0.2c0.2-0.5,0.3-0.8,0.3-1c0.5,0,0.8,0,1.3,0c0-0.8,0.8-1,1.2-1.5
		c0-0.2,0.5-0.2,0.7-0.2c0.5-0.8,0.5-1.7,0.7-2.6c0.2-0.7,0.2-1.3-0.2-2c-0.2-0.3-0.2-0.8-0.3-1.2c0-0.2,0-0.2,0-0.3
		c-0.3-0.2-0.7-0.2-1.2-0.3c-0.2-0.3-0.5-1-0.7-1.5c-0.3,0-0.7,0.2-1,0.2s-0.7-0.2-1-0.3c0-0.3,0.2-0.7,0.2-1.2
		c-0.3,0.2-0.7,0.3-0.8,0.5c0.8-3.3,1-6.8,0.2-10.1c-0.5-2-0.5-4-0.7-5.9c0.3-0.2,0.7-0.2,0.8,0c0.8,0.7,1.8,0.7,2.6,1.2
		c0.2-0.5,0.3-1,0.5-1.3c-0.5-0.2-0.7-0.7-0.3-1c0.2-0.3,0.3-0.7,0.2-0.8c-0.3-0.7,0-1.3,0.2-1.8c0.2-0.7,0.8-1,1.5-0.7
		c0.5,0.2,0.8,0.3,1.3,0.5c0.2,0,0.5,0,0.7-0.2s0.2-0.5,0-0.7c0-0.2-0.2-0.3-0.3-0.5c-0.3-0.2-0.7-0.2-0.8-0.3
		c-0.7-0.2-0.8-0.3-0.5-1c0.2-0.5,0.3-1,0.3-1.7c0-0.5,0.8-1,1.3-0.8s0.8,0.2,1.3,0c-0.2-0.3,0.2-0.7-0.2-1
		c-0.2-0.2-0.3-0.3-0.7-0.5c-0.3-0.2-0.3-0.3-0.3-0.7c-0.2-0.3,0-0.5,0.2-0.7s0.3-0.3,0.5-0.5c0.5-0.5,0.3-1-0.3-1.3
		c-0.2-0.2-0.3-0.3-0.5-0.3c-0.8-0.3-0.7-1.2-1.2-1.8c-0.2-0.5-0.2-0.8,0.2-1.2s0.8-0.7,1.3-1.2c0-0.2,0-0.2,0-0.3
		c0-0.2,0-0.2,0-0.3c-0.8-0.2-1.7-0.3-2.3-0.5c-0.2-0.3-0.2-0.3-0.3-0.5c-0.3-0.7-0.3-0.7,0.2-1.3c0.3-0.3,0.7-0.8,0.7-1.3
		c-0.5-0.3-1-0.3-1.5-0.2c-0.5,0.2-0.8,0.2-1.2,0c-0.5-0.2-0.8-1.3-0.5-1.7c0.2-0.2,0.3-0.2,0.2-0.3c0-0.3-0.2-0.7-0.2-0.8
		c-0.2-0.3-0.8-0.3-1.2-0.2c-0.7,0.5-1,0.5-1.5-0.2c-0.2-0.3-0.3-0.7-0.5-1c0.2-0.5,0.3-1,0.5-1.5c-0.7-0.3-1.2-0.3-1.7,0.2
		c-0.3,0.3-0.8,0.3-1.3,0c-0.2-0.8,0.3-1.8,0.3-2.6c-0.3-0.2-0.7-0.2-1-0.3c-0.3,0.5-0.8,0.8-1,1.3c-0.3,0.7-0.8,0.8-1.5,1
		c-0.3,0-0.7-0.2-0.8,0c-0.8,0.3-1.7,0.2-2.5-0.2c-0.5-1-1-2-1.3-3.1c-1.7-3.1-2.6-1.2-4-4.3c-0.3-0.5-0.5-1.5-0.3-1.8
		c2.6-4.5,13.4-16.7,22.4-27.6c-0.2,1-0.2,2-0.2,3c-0.2,15,9.2,32.7,26.1,32.8c11.2,0.2,26.4-20.5,33.8-28.9
		c8.9,14.9-0.8,73.8,34.2,74.1c8.1,0.2,14.9-4.3,17.7-11.9c2.8-3,6.1-5.3,8.6-8.4c5-5.4,15.8-25.9,20.3-36.5c0.2,4,0.3,7.8,0.5,11.7
		c0,8.3-0.8,6.3-0.5,14.2c0.3,8.9,0.8,17.8,1.3,26.7c0.5,5,3,9.2,7.6,12.4c4.8,2.8,9.4,4.6,14.7,6.1c3.8,1.2,7.8,3,12.2,2
		c3.8-0.7,6.4-2.8,7.3-6.3c0.3-1.8,0.5-3.6,0.8-5.4c0.8-5.4,2-9.7,3.8-15.8c1.7-5.3,1.2-5.9,4.6-13.4c2.6-5.9,5.9-12.2,8.7-18.5
		c3.1-7.4,5.6-11.7,10.6-18.6c3.6-4.6,7.6-13.2,11.4-18.2c3.8-5.3,7.8-10.1,11.9-15c3-4.1,6.6-7.6,9.1-12c3.1-5.3,6.8-10.9,8.3-17.3
		c1.2-5.9,0.7-10.6-2.6-15.5c-0.5,1.5-1,3-1.5,3.8c-8.6,13-16.8,26.6-25.7,39.3c-10.4,15.2-21.3,29.9-32.3,45.1
		c-2,2.8-4.1,5.4-6.4,9.1c-0.3-2.5-0.3-4-0.5-5.3c-0.2-5-0.3-10.1-0.8-15c-0.5-5-1-9.6-1.7-14.5c-0.2-1.2,0.3-2.3,0.2-3.6
		c-0.3-6.4-0.5-11.6-0.7-19c0.2-1.2,0-1.8,0.2-2.8c-0.2-3.6,1.5-5.6,0-8.7c-2.6-5.6-8.1-7.3-12.2-10.6c-3.8-3-9.7-2.3-14.2-5.1
		c-5.1-2.8-9.2-1.7-11.4,0.8c-0.3,4.5-0.8,7.4-1.2,10.7c-0.3,4.3-2,9.4-1,13.5c0.5,1,1.3,1.7,1.5,2.6c0.7,3.8-1.2,7.8-1.3,11.4
		c0,3-0.2,5.8-0.5,8.6c-3.1,8.7-6.1,16.7-7.6,20.5c-5,12.2-11.4,20.6-18.5,32c-1.2,1.8-2.5,4.5-5,4.5c-0.7,0-1.2-0.3-1.8-1
		c-0.3-0.7-0.3-1.5-0.3-2.5c0.3-25.3-10.2-48.9-10.1-72.1c0-5.9,2-11.7,2-17.8c0.2-9.4-11.7-25.4-21.5-25.9c-2.5,0-4.5-1.3-6.6-2.1
		c-2.6-1-7.3-3.1-9.9-3.1c-3,0-5.8,2.3-6.4,5.3c0.8,1.5,1.5,2.8,1.5,4.3c0,4.5-1,9.1-1.3,13.2c-5.6-3.1-12-7.4-18.6-7.4
		c-13.5-0.2-26.1,18.3-32.3,34.8c-5.4,6.4-25.3,24.9-27.4,28.7c-1,1.3-2.3,2.8-3.6,4.3c-2.3-3.3-4.1-6.6-6.8-9.6
		c-2.3-3-5-5.9-6.1-9.7c0-0.3-0.3-0.5-0.5-0.8c-4.8-5-9.7-9.7-14.5-14.7c-2.6-2.6-5.4-5.3-7.9-7.9c-1.5-1.7-3-2.8-4.1-4.5
		c-2.6-3-5-6.3-7.3-9.2c-1.2-1-1.7-2.5-2.6-3.3c-2.3-2.6-3.3-5.6-3.8-8.9c-0.2-0.7-0.2-1.2,0-1.5c1.8-3.3,3.8-6.8,5.6-10.4
		c1.2-2,2.6-4.5,3.1-6.6c1.5-4.1,2-8.3,3.1-12.4c1.3-3.6,0.3-7.1,0.2-10.4c0-5.8-3.5-10.1-7.1-14c-1.2-1-3.5-1-4.8-1.7
		c-4.6-2.6-9.6-2.6-14.2-3.1c-3.6-0.3-7.1-0.3-10.7-0.2c-2.8,0.2-5.8,0.7-8.4,1c-0.8,0.2-1.7,0.8-2.1,1.7c-1.5,1.8-3,3.8-4,5.8
		c-2,4.6-4,9.2-5.3,14c-1.5,5.4-2.1,10.7-3.1,16.3c-0.5,4.3-1,8.7,0,13.2c0.3,2.3,1.3,4.6,1.7,6.8c2,8.7,6.4,16.7,10.1,24.6
		c3.3,7.1,9.2,12.2,14.2,18.2C85.6,191.9,91.9,198.5,97,206.3z M203.1,195.1c0.7-5.9,0.2-10.6,1.2-15.7c0.3-3,1.8-5.9,3.5-8.7
		c2.1-4.5,2.1-8.7,6.1-11.7c1.8-1.8,3.3-4.5,5.4-5.6c2.5-1.5,5.1-2,7.9-3c0,0.3,0,0.7,0,0.8c4-1.5,6.3,2.8,9.6,4.3
		c0.7,0,0.5,2.5,0.8,3.6c0.3,3.6,0.2,7.3,0.5,10.9c0,3.3-0.3,6.3-2,9.2c-3.5,6.3-5.9,13.2-9.6,19.1c-4,6.6-8.9,12.5-13.2,18.5
		c-1,1.5-2.1,2.6-3.3,3.6c-2.5,2.3-4.8,2-6.3-1.7c-1.8-4,0.3-7.8-0.5-13c-0.3-1.8-0.8-2.6-0.8-4.5
		C202.1,199.2,202.8,197.7,203.1,195.1z M80.6,93.6c0.8-2.8,3.6-4,6.8-3.8c0.7-0.2,1,0.2,1.2-0.2c4.3-2,8.3,0.2,12.2,1.7
		c1,0.5,2,1.2,2.5,2.3c1.2,1.3,1.8,3.3,3,5c1.7,2.1,1.7,4.3,1.5,6.8c0,1.8,0.3,3.6,0.3,5.4c0.2,0.8,0,1.5-0.3,2.1
		c-1.2,4.1-2.3,8.3-3.8,12.2c-1.3,3.6-3,6.6-4.5,9.9c-0.7,1.7-1.3,3-2.3,4.6c-1.5-1.3-2.8-2.3-3.3-3.5c-2.1-4-3.8-7.9-5.9-11.9
		c-0.2-0.8-0.7-1.8-1-2.6c-1.7-2.8-1-5.6-1.3-8.6c-0.7-3.8-1.2-7.4-4-10.9C79.5,99.5,79.8,96.4,80.6,93.6z"/>
	
		<radialGradient id="SVGID_77_" cx="292" cy="434" r="1062.194" gradientTransform="matrix(1.6503 0 0 1.6503 5.5549 3.476715e-02)" gradientUnits="userSpaceOnUse">
		<stop  offset="0" style="stop-color:#FFF6F1"/>
		<stop  offset="1" style="stop-color:#D6C3B4"/>
	</radialGradient>
	<path fill="url(#SVGID_77_)" d="M407.7,225.4c-6.8,29.4-2.6,69.5,32.5,77.6c5.6,1.3,9.6-0.3,15-0.7c19-0.7,35.5-22.8,46.4-36.3
		c4.3-5.1,6.6-11.4,10.2-16.5c5-6.6,8.7-14,12.5-21.3c1-2,0.7-5.4,1.3-7.4l-0.3-1c-0.2-0.3-0.5-0.5-0.8-0.5
		c-4.1-1-10.6,5.6-14.5,16.2c-2.3,5-4.8,8.7-6.8,12.4c-7.9,13.4-17.2,23.6-29.2,33.2c-2.3,2.3-7.9,2.5-10.9,1.8
		c-3.3-0.7-11.4-5.4-12.2-8.4c-2.6-8.3-3.5-17.2-2.8-26.2l0,0c0.2,0,0.5,0,0.7,0s0.5-0.2,0.7-0.3c-0.2-0.3-0.2-0.7-0.3-0.8
		c-0.2-0.3-0.7-0.3-0.8,0c0.3-5.3,1.2-10.6,2.3-15.5c0.8-3.5,2-6.1,5.4-7.4c12.2-5.9,21.8-19.5,24.8-32.7
		c1.8-7.6-5.3-12.4-11.7-13.9C433.2,169.8,415.3,192.6,407.7,225.4z M470.3,190.3l-0.7,4.5c-1.3,7.4-9.9,25.6-18.8,25.6
		c-3.6-3-2.3-8.9-1.7-13.5c0.3-0.2,0.8-0.3,1.2-0.5c0-0.3-0.2-0.5-0.2-0.8c0-0.5,0-0.8-0.5-1.2c5.3-5.4,11.1-10.9,16.5-16.3l3.1-0.5
		L470.3,190.3z"/>
	
		<radialGradient id="SVGID_78_" cx="292" cy="434" r="1062.194" gradientTransform="matrix(1 0 0 -1 0 792)" gradientUnits="userSpaceOnUse">
		<stop  offset="0" style="stop-color:#FFF6F1"/>
		<stop  offset="1" style="stop-color:#D6C3B4"/>
	</radialGradient>
	<path fill="url(#SVGID_78_)" d="M354.6,358.6c1.8-0.3,2.8-1.5,4.3-2.3c5.6-2.8,7.3-11.7,8.6-17.3c0.5-2.1,0.3-4.3,0.7-6.4
		c0.5-2.6,0.7-5.4,0.8-8.1c0-0.7-0.7-1.7-0.7-2.5l-0.3-0.3c-0.2,0-0.2,0-0.3,0c-1.3,0.3-2.3,3.1-2,6.9c0,1.8-0.2,3.3-0.3,4.6
		c-0.5,5.1-1.8,9.4-4,14c-0.3,1-2,1.8-3,2.1c-1,0.2-4.1,0-4.8-0.8c-3.1-3.3-5.1-8.1-6.1-12.7c-0.3-1.2-0.3-2.1,0.5-3
		c2.8-3.5,3.8-8.9,2.8-13.2c0-0.3-0.2-0.5-0.3-0.8c0,0,0,0,0.2,0c0.5-1.3,0.8-2.1,1.2-3.3c-0.3-0.8-0.7-1.5-0.8-2.1
		c0-0.5-0.2-1-0.5-1.2c-0.5-0.3-0.5-0.8-1.2-1s-1.3-0.5-2-0.7c-0.3-0.2-0.5,0-0.8,0c-1.2,0.2-2.1,0.5-2.8,1.3
		c-0.3,0.3-0.8,0.5-1,1.2s-0.5,1.2-0.5,1.8c0,0.5,0.3,1.2-0.2,1.8c0,0,0.2,0.3,0.3,0.3c0.3,0.2,0.5,0.5,0.5,0.7s0,0.2,0.2,0.3
		c-9.6,3.3-11.2,12-8.9,22.1c0.3,1.8,1,3.5,1.7,5.3c-1,4.3-2,10.6-2.8,13.2c-0.5,1.3-1,2.8-1.5,4.1c-0.2,0.3-2.1,3.1-2.1,3.3
		c-2-5.3-3-10.9-2.8-16.3c0-2.1,0.3-4.3,0.2-6.4c-0.2-2.1-0.8-4.3-2-5.9c-3-4-8.9-3.5-11.6,0.8c-0.2,0.5-0.2,1-0.5,1.3
		c-1.7,1.7-3.5,3-5.3,4.5c-0.7-1.7-1.5-3-1.8-4.6c-0.5-2.3-1.8-5.9-3-7.9c-0.3-0.8-0.7-2.1-0.3-2.8c0.5-1.5,1.2-2.8,1.3-4.3
		c0.3-1.8,1.2-3.5,1.5-5.3c0.5-1.8,1.3-3.6,1.2-5.4c-0.3-2.1,0.5-5.3-1.8-6.8c-0.7-0.5-1.7-1.2-2.3-1.2c-1.7-0.2-3.3,0.5-4.8,1.8
		c-0.2,0.2-0.3,0.2-0.5,0.3c-2.3,2-4,3.5-5,6.1c-1.3,3.1-2.1,6.4-2.5,9.7c-0.5,4.6,0.3,11.1,0.8,15.7c0.3,2.5,1.2,5,1.8,7.6
		c-0.2,0.3-0.3,0.7-0.3,1c0.2,0.5,0.2,0.8,0,1.3c0,0.3,0.2,0.7,0.2,0.8c-0.2,0.5,0,0.7,0.5,0.8c0.2,0.5,0.5,0.7,0.8,0.8
		c0,0.2,0,0.2,0,0.3c-0.2,1.8-0.5,3.6-0.5,3.8c0,0.3,0,0.8-0.2,1.3c-0.3,1.5-0.5,3-0.7,4.3c0,0,0-0.2-0.2-0.2c-0.7-0.7-1.3,0-2-0.2
		c0,0-0.3,0.3-0.3,0.5c0.2,0.5,0.2,0.8,0.2,1.3c0.2,0.7,1,1.2,1.8,1c0,0.3-0.2,0.7-0.2,1c-0.5,1.3-2,3.5-3.3,3.8
		c-1.8,0.3-1.7-0.5-2.8-1c-0.2-0.2-0.3-0.2-0.7-0.5c-0.5-0.5-1.7-3.3-1.8-4s-0.2-1.3-0.2-2c-0.2-0.8-0.5-1.7-0.8-2.6
		c-0.3-1.8-0.8-3.5-1.2-5.1c-0.8-4-1.3-7.9-1.7-12c-0.2-1.3-0.2-2.6-0.3-4c-0.2-0.7-0.3-1.3-0.5-2c0-0.2-0.2-0.3,0-0.7
		c-0.2-1-0.3-2-0.5-3c0.7,0.2,1.2,0.3,1.8,0.7c0.5-0.2,0.8-0.5,1.3-0.7c0.7-0.2,0.8-0.8,1.5-1.2c0.5-0.2,0.2-0.8,0.7-1.2
		c0.5-0.2,0.5-0.8,1-0.8c0.2,0,0.2-0.5,0.2-0.7c-0.3-0.3-0.2-0.7,0-1.2c0-0.2,0-0.3,0-0.5c-0.5-0.2-1-0.3-1.5-0.5
		c0.2-0.8-0.2-1.5-0.5-2s-0.8-1-1.3-1.2c1-0.5,1.8-0.8,2.3-1c1.7-0.7,5.9-1.8,5.4-4.1c-0.3-1.3-0.5-1.2-1.7-0.8
		c-0.7,0.2-1.5,0.2-2.1,0.5c-1.3,0.5-0.3,0.7-1.7,1c-0.2,0-0.7,0.2-0.7,0c-0.2,0-0.3,0-0.7,0c-0.3,0.2-0.8,0.3-1.2,0.3
		c-2,0.7-1.8,0.8-4,1.3c-0.8,0.2-0.8-0.2-1-1l-0.5-2l-0.3-1.5c-0.5-2.3-2.3-4.8-5.1-4.6c-0.8,0-1.7-0.2-2.5-0.3
		c-0.7,0-1.8-0.3-2.5-0.2c-0.3,0-0.5,0.2-0.5,0.7c0,0.7-0.3,1.5-0.2,2.1c0.2,0.7,0.7,0.8,0.7,1s0.2,0.3,0,0.7
		c-0.2,2.6-0.8,5.6-0.3,8.3c0.2,0.7,0,0.7-0.5,1c-0.8,0.2-1.7,0.5-2.3,0.7c-1.2,0.3-2.1,1-3.1,1.5c-1,0.3,1.2-0.5,0.2-0.2
		c-2.1,0.8-0.3,0.7-2.5,1.5c-0.3,0-1.5,0.8-1.5,1c0,0.3,1.2,1.3,1.5,1.3c1,0.2,1.7,0.5,2.6,0.2c2.6-0.7,2.3-0.3,4.8-1.3
		c0.3-0.2,0.7-0.3,1.2-0.5c0.3,0,0.7,0,0.7,0.5c0.2,0.3,0,0.8,0.2,1.3c0.2,0.7,0.5,1.2,0.7,1.8c0,0.3,0,0.7,0,0.8
		c0,1,0.2,1.8,0.3,2.8c0.2,1.3,0,2.5,0.3,3.8c0.3,1.5,0.5,3,0.8,4.5s1.2,3,1.5,4.3c0.2,1,0.2,1.8,0.3,2.8c0.3,1.7,0.8,3.3,1.3,5.1
		c0.2,1,0.5,2.1,0.7,3.5c0,0.7,0.2,1.3,0.3,2.1s0.7,1.7,0.8,2.5c0.3,1.5,0.5,2.8,0.8,4.3c0.5,2,1.5,4,2.5,5.8c0.3,1,1.5,1.2,2.3,1.5
		c1.3,0.5,2.6,1.3,4,1.7c1.2,0.3,2.3,0.3,3.5,0s2.8-0.7,3.6-1.7c0.3-0.5,1.7-2.1,2-2.6c0.5-1.2,1.2-1.7,1.7-2.6
		c0.3-0.5,0.8-1.3,1.2-2.5c1.2-2.6,1.3-5.3,1.5-7.3c0-0.3,0.2-0.8,0.2-1.2c0.3,1.5,0.5,2.8,0.8,4.3c0.2,1.7,0.5,3.3,1.5,4.6
		c1.2,1.7,3,2.6,4.6,3.5c0.5,0.2,0.8,0.3,1.3,0.5c1.3,0.2,2.5-0.5,4-0.3c1.3,0,2.3-0.3,3.5-1s1.7-1.3,1.7-2.5c0.2-1,0.2-2.1,0-3.1
		c-0.5-2.5-1-4.8-1.3-7.4c-0.2-1.5-0.2-3.1-0.7-4.5c-0.7-2,0.2-3.6,0.8-5.3c0.7-1.3,1.8-2.5,2.6-3.6c0.5-0.7,1.2-1.3,1.7-2
		c0,0.2,0.2,0,0.2,0.2c0.2,1,0.3,2,0.3,2.8c0,3-0.2,5.8,0,8.7c0,2.1,1,4.1,1.2,6.3c0.3,4,2.3,7.3,4.6,10.2c2.8,3.5,7.8,3.5,9.9-1.7
		c0.5-0.7,0.8-1.5,1.3-2.1c0.8-1,0.5-2.3,1-3.3c1-2,1.7-3.5,2.3-5.4c0.5-1.3,1-4.5,1.7-7.4c0-0.2,0-0.2,0-0.3
		C341.4,356,347,360.3,354.6,358.6z M299,308.6c0.5-0.3,0.8-0.7,1.3-1.2c0.7-0.5,0.8-0.3,1.2-0.3c0.7,0.2,1,0.7,1.5,1.3
		c0.5,0.8,0.5,1.5,0.7,2.3c0,1.2-0.2,2.1-0.3,3c-0.2,1.8-0.5,3.6-1,5.4s-0.8,3.8-1.5,5.4c-0.2,0-0.2,0-0.3,0c-0.5-1.2-1-2.1-1.5-3.3
		c-0.8-2-1.5-4-2.1-6.1C295.7,312.4,296.3,310.6,299,308.6z M346,332.5c-1.7-0.5-2.1-3-2.6-4.5c0.8-2.5,1.8-4.8,2.6-7.3l0.8-0.7l0,0
		l0.7,0.7l0.5,1.5C348.7,324.6,348.7,331.2,346,332.5z"/>
	
		<radialGradient id="SVGID_79_" cx="292" cy="434" r="1062.194" gradientTransform="matrix(1.6503 0 0 1.6503 5.5549 3.476715e-02)" gradientUnits="userSpaceOnUse">
		<stop  offset="0" style="stop-color:#FFF6F1"/>
		<stop  offset="1" style="stop-color:#D6C3B4"/>
	</radialGradient>
	<path fill="url(#SVGID_79_)" d="M178.8,303.5c-0.3-0.3-1.2,0-1.3-0.7c0.2-0.3,0.3-0.8,0.3-1.2c-0.5-0.2-0.7-0.5-0.3-1
		c0.2-0.3,0.3-0.8,0.3-1.2c-0.8-0.3-1.5-0.5-2-0.7c-0.7-0.3-0.8-1.2-1.2-1.8c-0.5,0-1,0-1.5,0.2c-0.5,0-1,0-1.7-0.3
		c-0.2-0.2-0.3-0.7-0.5-1c-0.2,0.3-0.5,0.7-0.7,1c-0.7,0.2-1.2-0.2-1.7,0.3c-0.8,0.8-1.8,1.5-2.5,2.5c-0.2,0-0.5,0-0.7-0.2
		c-0.2,0.3-0.2,0.7,0,1c0.3,0.8,0.2,1-0.7,1.5c0,0,0,0.2-0.2,0.2c0.2,0.3,0.7,0.7,0.7,1c0,0.5-0.3,0.8-0.8,1c0.2,0.3,0,0.8,0.5,0.8
		c0.3,0,0.5,0.3,0.5,0.7c0.2,0.5,0.3,1.2,0,1.7c0.3,0.2,0.5,0.2,0.8,0.3c0.2,0,0.3-0.2,0.5-0.2c0.3,0.5,0.7,1,0.3,1.5
		c0,0.2,0.2,0.3,0.2,0.5c0.7,0.2,0.7-0.5,1-0.7c0.7,0.2,1.3,0.3,1.5,1c0.2,0.3,0.5,0.5,0.8,0.7c0,0,0.2,0.2,0.2,0
		c0.8-0.3,1.7-0.2,2.3-1c0.3,0.2,0.8,0.5,1.2,0.7c0-0.3,0.2-0.5,0.2-0.7s0-0.5,0-0.7c0.2-0.2,0.5-0.3,0.8-0.3c0.2,0,0.5,0.2,0.7,0.2
		c0.2-0.5,0.5-0.8,0.3-1.3c0.7-0.2,0-0.8,0.5-1.2c1,0,1,0,1.5-0.5c-0.7-0.3-1.2-0.7-1-1.3C177.7,303.8,178.5,304.2,178.8,303.5z"/>
	
		<radialGradient id="SVGID_80_" cx="292" cy="434" r="1062.194" gradientTransform="matrix(1.6503 0 0 1.6503 5.5549 3.476715e-02)" gradientUnits="userSpaceOnUse">
		<stop  offset="0" style="stop-color:#FFF6F1"/>
		<stop  offset="1" style="stop-color:#D6C3B4"/>
	</radialGradient>
	<path fill="url(#SVGID_80_)" d="M189.6,309.8c0.3,0.2,0.8-0.2,1,0.5c0.5-0.3,1,0.2,1.7-0.2c0.5-0.3,1.2-0.5,1.7-0.5
		c0.3,0,0.3-0.5,0.8-0.3c0.2,0,0.5-0.2,0.5-0.5c0.2-0.2,0.5-0.3,0.7-0.7c0.3-0.3,0.7-0.8,0.7-1.2c0-0.3,0-0.7,0.2-1
		c0.3-0.7,0.3-1.5,0.2-2c-0.2-0.8-0.7-1.8-1.3-2.3c-0.2-0.2-0.5-0.3-0.7-0.7c-0.3-0.3-0.7-1.2-1.5-0.7c-0.7-0.2-1.3,0-2-0.2
		c-0.5-0.2-1.2,0.2-1.7,0.3c-0.5,0.7-1.3,0.8-1.7,1.7c-0.2,0.5-0.8,0.8-0.8,1.7c-0.5,0.2-0.3,0.5-0.2,0.8c0,0.2,0,0.3,0,0.5
		c-0.2,0.8,0,1.5,0.3,2.1c0.3,1,1.3,1.3,1.7,2.1C188.9,309.6,189.2,309.6,189.6,309.8z"/>
	
		<radialGradient id="SVGID_81_" cx="292" cy="434" r="1062.194" gradientTransform="matrix(1.6503 0 0 1.6503 5.5549 3.476715e-02)" gradientUnits="userSpaceOnUse">
		<stop  offset="0" style="stop-color:#FFF6F1"/>
		<stop  offset="1" style="stop-color:#D6C3B4"/>
	</radialGradient>
	<path fill="url(#SVGID_81_)" d="M159.9,315.5c0.2-0.7,0.7-0.3,0.8-0.5c0.2,0,0.3,0,0.3,0c0-0.5,0-1,0.2-1.3c0.7-0.7,0.7-1.5,1-2.1
		c-0.7-0.5-0.7-0.5-0.7-1s-0.2-1-0.7-1.2c-0.3-0.2-0.7-0.3-0.8-0.5c-0.3-0.5-0.8-0.5-1.5-0.5c-0.2-0.3-0.2-0.5-0.3-0.7
		c-0.2,0.2-0.5,0.2-0.5,0.2c-0.3,0.7-0.8,0.5-1.2,0.3h-0.2c-0.2,0.3-0.2,0.7-0.3,1c-0.5,0-0.8,0.2-1.2,0.7c-0.7,1-1,1.8-0.5,3
		c0.2,0.3,0.3,0.7,0.2,1l0.2,0.2c0.7,0.2,0.7,0.8,1,1.3c1-0.2,1.5,0.5,2.1,0.8c0.2-0.5,0.7-0.7,1.2-0.8
		C159.4,315.9,159.9,315.9,159.9,315.5z"/>
	
		<radialGradient id="SVGID_82_" cx="292" cy="434" r="1062.194" gradientTransform="matrix(1.6503 0 0 1.6503 5.5549 3.476715e-02)" gradientUnits="userSpaceOnUse">
		<stop  offset="0" style="stop-color:#FFF6F1"/>
		<stop  offset="1" style="stop-color:#D6C3B4"/>
	</radialGradient>
	<path fill="url(#SVGID_82_)" d="M134.6,392.5c-0.5,0.2-0.8,0.5-1.3,0.7c-0.2,0.3-0.2,0.7-0.3,1c0.2,0.3,0.2,0.7,0.3,0.8
		c0.5,0.8,1.3,1.3,2.3,1.5c1.3,0.2,3-1.2,3.6-2.5c-0.3-0.3-0.7-0.5-0.8-0.7c-0.2-0.2-0.5-0.3-0.7-0.3
		C136.8,393.1,135.8,392.6,134.6,392.5z"/>
	
		<radialGradient id="SVGID_83_" cx="292" cy="434" r="1062.194" gradientTransform="matrix(1.6503 0 0 1.6503 5.5549 3.476715e-02)" gradientUnits="userSpaceOnUse">
		<stop  offset="0" style="stop-color:#FFF6F1"/>
		<stop  offset="1" style="stop-color:#D6C3B4"/>
	</radialGradient>
	<path fill="url(#SVGID_83_)" d="M185.1,390.8c-0.3,0.2-0.7,0.5-1,0.7c0.3,0.5,0.5,0.8,0.8,1.2c0.8-0.3,1.8-0.3,2.1-1.3
		c-0.3-0.2-0.8-0.7-1-0.5C185.8,391.1,185.4,390.6,185.1,390.8z"/>
	
		<radialGradient id="SVGID_84_" cx="292" cy="434" r="1062.194" gradientTransform="matrix(1.6503 0 0 1.6503 5.5549 3.476715e-02)" gradientUnits="userSpaceOnUse">
		<stop  offset="0" style="stop-color:#FFF6F1"/>
		<stop  offset="1" style="stop-color:#D6C3B4"/>
	</radialGradient>
	<path fill="url(#SVGID_84_)" d="M216.3,320.5c0,0.2-0.2,0.5-0.2,0.7c1.7,0.7,2,0.5,2.5-1.2c-0.7-0.3-1.3-0.5-2,0
		C216.5,320,216.3,320.3,216.3,320.5z"/>
	
		<radialGradient id="SVGID_85_" cx="292" cy="434" r="1062.194" gradientTransform="matrix(1.6503 0 0 1.6503 5.5549 3.476715e-02)" gradientUnits="userSpaceOnUse">
		<stop  offset="0" style="stop-color:#FFF6F1"/>
		<stop  offset="1" style="stop-color:#D6C3B4"/>
	</radialGradient>
	<path fill="url(#SVGID_85_)" d="M155.9,380.1c0.2,0.2,0.2,0.3,0.2,0.5c0.2,0.3,0.3,0.5,0.7,0.5c0.3,0,0.8-0.5,0.8-0.7
		s-0.2-0.2-0.2-0.3s-0.2-0.2-0.3-0.3C156.9,379.7,156.4,379.9,155.9,380.1z"/>
	
		<radialGradient id="SVGID_86_" cx="292" cy="434" r="1062.194" gradientTransform="matrix(1.6503 0 0 1.6503 5.5549 3.476715e-02)" gradientUnits="userSpaceOnUse">
		<stop  offset="0" style="stop-color:#FFF6F1"/>
		<stop  offset="1" style="stop-color:#D6C3B4"/>
	</radialGradient>
	<path fill="url(#SVGID_86_)" d="M105.2,389.2c0,0.3,0,0.5,0.3,0.8c0.5,0.3,0.8,0,1.2-0.2c-0.2-0.3-0.2-0.8-0.8-1
		C105.7,388.7,105.4,388.8,105.2,389.2z"/>
	
		<radialGradient id="SVGID_87_" cx="292" cy="434" r="1062.194" gradientTransform="matrix(1.6503 0 0 1.6503 5.5549 3.476715e-02)" gradientUnits="userSpaceOnUse">
		<stop  offset="0" style="stop-color:#FFF6F1"/>
		<stop  offset="1" style="stop-color:#D6C3B4"/>
	</radialGradient>
	<path fill="url(#SVGID_87_)" d="M147.8,314.7c-0.2,0.3,0,0.7,0.3,0.8c0.5,0.2,0.7,0,0.8-1c-0.8-0.3-0.8-0.3-1-0.2
		C148,314.6,147.8,314.6,147.8,314.7z"/>
	
		<radialGradient id="SVGID_88_" cx="292" cy="434" r="1062.194" gradientTransform="matrix(1.6503 0 0 1.6503 5.5549 3.476715e-02)" gradientUnits="userSpaceOnUse">
		<stop  offset="0" style="stop-color:#FFF6F1"/>
		<stop  offset="1" style="stop-color:#D6C3B4"/>
	</radialGradient>
	<path fill="url(#SVGID_88_)" d="M126.7,346.9c0.5-0.3,1.2-0.3,1-1c-0.5,0-1,0.2-1.3,0.5C126.4,346.6,126.5,346.7,126.7,346.9z"/>
	
		<radialGradient id="SVGID_89_" cx="292" cy="434" r="1062.194" gradientTransform="matrix(1.6503 0 0 1.6503 5.5549 3.476715e-02)" gradientUnits="userSpaceOnUse">
		<stop  offset="0" style="stop-color:#FFF6F1"/>
		<stop  offset="1" style="stop-color:#D6C3B4"/>
	</radialGradient>
	<path fill="url(#SVGID_89_)" d="M109.4,378.3c0.3,0.3,0.7,0.3,1-0.2c0-0.5-0.3-0.7-0.8-0.7C109.5,377.8,109.5,377.9,109.4,378.3z"
		/>
	
		<radialGradient id="SVGID_90_" cx="292" cy="434" r="1062.194" gradientTransform="matrix(1.6503 0 0 1.6503 5.5549 3.476715e-02)" gradientUnits="userSpaceOnUse">
		<stop  offset="0" style="stop-color:#FFF6F1"/>
		<stop  offset="1" style="stop-color:#D6C3B4"/>
	</radialGradient>
	<path fill="url(#SVGID_90_)" d="M132.5,396.2c0.5-0.3,0.5-0.3,0.3-0.8C132.1,395.8,132.1,395.8,132.5,396.2z"/>
	
		<radialGradient id="SVGID_91_" cx="292" cy="434" r="1062.194" gradientTransform="matrix(1.6503 0 0 1.6503 5.5549 3.476715e-02)" gradientUnits="userSpaceOnUse">
		<stop  offset="0" style="stop-color:#FFF6F1"/>
		<stop  offset="1" style="stop-color:#D6C3B4"/>
	</radialGradient>
	<path fill="url(#SVGID_91_)" d="M179,234.3c-0.3,0.2-0.5,0.2-0.8,0.3c0.2,0.2,0.3,0.3,0.5,0.7C178.8,235,178.8,234.8,179,234.3z"/>
</g>
<g>
	<g>
		<path fill="#FCF4F0" d="M127.4,719.4h-18.5v-0.5c0.7-0.7,1.5-1.5,2.4-2.5s2-2.2,3.3-3.8c0.6-0.7,1.2-1.4,1.7-2.1s1-1.4,1.4-2
			s0.7-1.4,1-2.2s0.4-1.6,0.4-2.4c0-1.1-0.3-2-1-2.7s-1.5-1-2.5-1c-2,0-4,1-5.9,3.1v-5.7c0.7-0.4,1.3-0.8,1.7-1.1s1-0.5,1.5-0.8
			s1.3-0.5,2.1-0.7s1.7-0.3,2.6-0.3c1.5,0,2.8,0.3,4.1,0.9s2.2,1.5,2.9,2.6s1,2.5,1,4c0,1.1-0.2,2.1-0.5,3s-0.6,1.7-1,2.3
			s-0.8,1.3-1.4,2.1c-1,1.5-2.1,2.9-3.2,4.3h7.9V719.4z"/>
		<path fill="#FCF4F0" d="M149,704.3c0,1.8-0.4,3.7-1.2,5.5s-1.9,3.6-3.4,5.3s-3.2,3.2-5.1,4.6l-6-2c2.8-2.4,4.9-4.6,6.2-6.6
			c-0.4,0.1-1,0.2-1.6,0.2c-1.4,0-2.7-0.3-3.9-1s-2.2-1.6-2.9-2.8s-1.1-2.6-1.1-4.1c0-1.1,0.2-2.2,0.7-3.3s1.1-2,1.9-2.8
			s1.8-1.5,3-2s2.4-0.7,3.8-0.7c1.5,0,2.9,0.3,4.2,0.8s2.2,1.2,3,2.2s1.4,1.9,1.8,3.1S149,703.1,149,704.3z M142.6,703.5
			c0-1-0.3-1.8-0.9-2.4s-1.3-1-2.2-1c-0.8,0-1.4,0.2-1.9,0.6s-0.8,0.8-1.1,1.3s-0.3,1-0.3,1.5c0,1.1,0.3,1.9,0.9,2.5
			s1.4,0.8,2.2,0.8c0.8,0,1.4-0.2,1.9-0.5s0.8-0.8,1-1.3S142.6,704,142.6,703.5z"/>
		<path fill="#FCF4F0" d="M222.5,719.4h-6.5l-12.6-13.6v13.6H196V695h6.5l12.6,13.5V695h7.3V719.4z"/>
		<path fill="#FCF4F0" d="M254.6,707.2c0,2.3-0.5,4.4-1.6,6.3s-2.6,3.4-4.7,4.6s-4.6,1.7-7.6,1.7c-3,0-5.6-0.6-7.6-1.8
			s-3.6-2.7-4.6-4.6s-1.5-4-1.5-6.1c0-2.2,0.5-4.2,1.5-6.1s2.6-3.4,4.6-4.6s4.6-1.7,7.7-1.7c2.2,0,4.3,0.3,6,1s3.2,1.6,4.4,2.7
			s2,2.5,2.6,4S254.6,705.5,254.6,707.2z M247.1,707.2c0-0.9-0.1-1.7-0.4-2.5s-0.7-1.4-1.2-2s-1.2-1-2-1.3s-1.7-0.5-2.7-0.5
			c-2,0-3.5,0.6-4.6,1.7s-1.7,2.7-1.7,4.5s0.6,3.4,1.7,4.5s2.7,1.7,4.6,1.7c1.3,0,2.5-0.3,3.4-0.8s1.7-1.3,2.2-2.2
			S247.1,708.4,247.1,707.2z"/>
		<path fill="#FCF4F0" d="M282.5,695l-11,24.7h-4.9L255.9,695h7.6l5.6,14.1l5.7-14.1H282.5z"/>
		<path fill="#FCF4F0" d="M304.2,719.4h-18.4V695h18.1v4.9h-10.7v4.5h10.2v4.9h-10.2v5.2h11V719.4z"/>
		<path fill="#FCF4F0" d="M337.5,719.4h-7.3v-14.1l-6.6,8.2h-0.6l-6.6-8.2v14.1h-7.1V695h6.7l7.5,9.1l7.5-9.1h6.7V719.4z"/>
		<path fill="#FCF4F0" d="M365.9,712.5c0,2.1-0.7,3.8-2.2,5s-3.4,1.9-6,1.9h-14.1V695h11.8c1.5,0,2.9,0.1,4,0.4s2,0.7,2.7,1.2
			s1.2,1.1,1.5,1.8s0.5,1.4,0.5,2.3c0,0.9-0.2,1.7-0.5,2.5s-0.8,1.4-1.3,1.9s-1,0.8-1.6,1c1.7,0.7,2.9,1.5,3.8,2.5
			S365.9,710.9,365.9,712.5z M357.3,702c0-1.2-0.4-2-1.2-2.3s-2-0.6-3.6-0.6H351v5.8h1.6c1.7,0,2.9-0.2,3.6-0.6
			S357.3,703.2,357.3,702z M358.5,712.2c0-2.1-1.5-3.1-4.5-3.1h-3v6.2h3C357,715.3,358.5,714.2,358.5,712.2z"/>
		<path fill="#FCF4F0" d="M389,719.4h-18.4V695h18.1v4.9h-10.7v4.5h10.2v4.9h-10.2v5.2h11V719.4z"/>
		<path fill="#FCF4F0" d="M417.5,719.4h-7.9l-1.9-4.3c-0.7-1.6-1.3-2.7-1.9-3.5s-1.1-1.2-1.6-1.4s-1.2-0.3-2.1-0.3h-0.8v9.5h-7.3
			V695h12.5c2,0,3.7,0.4,5,1.2s2.2,1.8,2.8,3s0.9,2.3,0.9,3.3c0,1.2-0.2,2.3-0.7,3.1s-1,1.5-1.5,1.9s-1.1,0.8-1.8,1.1
			c0.8,0.5,1.4,1,1.9,1.6s1.2,1.9,2.1,3.8L417.5,719.4z M407.5,702.7c0-1.1-0.4-1.9-1.1-2.4s-1.9-0.7-3.6-0.7h-1.5v5.9h1.6
			c1.8,0,3-0.2,3.7-0.6S407.5,703.8,407.5,702.7z"/>
		<path fill="#FCF4F0" d="M448.4,719.4h-18.5v-0.5c0.7-0.7,1.5-1.5,2.4-2.5s2-2.2,3.3-3.8c0.6-0.7,1.2-1.4,1.7-2.1s1-1.4,1.4-2
			s0.7-1.4,1-2.2s0.4-1.6,0.4-2.4c0-1.1-0.3-2-1-2.7s-1.5-1-2.5-1c-2,0-4,1-5.9,3.1v-5.7c0.7-0.4,1.3-0.8,1.7-1.1s1-0.5,1.5-0.8
			s1.3-0.5,2.1-0.7s1.7-0.3,2.6-0.3c1.5,0,2.8,0.3,4.1,0.9s2.2,1.5,2.9,2.6s1,2.5,1,4c0,1.1-0.2,2.1-0.5,3s-0.6,1.7-1,2.3
			s-0.8,1.3-1.4,2.1c-1,1.5-2.1,2.9-3.2,4.3h7.9V719.4z"/>
		<path fill="#FCF4F0" d="M470,707.2c0,2.1-0.3,4-0.8,5.6s-1.2,2.9-2.1,3.9s-1.9,1.8-3,2.3s-2.3,0.7-3.6,0.7c-1.3,0-2.5-0.2-3.6-0.7
			s-2.1-1.3-3-2.3s-1.6-2.3-2.1-3.9s-0.8-3.4-0.8-5.6c0-2.1,0.3-4,0.8-5.6s1.2-2.9,2.1-3.9s1.9-1.8,3-2.3s2.4-0.7,3.6-0.7
			c1.3,0,2.5,0.2,3.6,0.7s2.1,1.3,3,2.3s1.6,2.4,2.1,3.9S470,705.1,470,707.2z M463.1,707.2c0-2.2-0.1-3.9-0.4-5.3s-1-2.1-2.1-2.1
			c-0.8,0-1.3,0.4-1.7,1.2s-0.6,1.7-0.7,2.7s-0.1,2.2-0.1,3.6c0,2.3,0.1,4.1,0.4,5.4s1,1.9,2.1,1.9c1.1,0,1.8-0.6,2.1-1.9
			S463.1,709.5,463.1,707.2z"/>
		<path fill="#FCF4F0" d="M485.2,719.4h-6.7V695h6.7V719.4z"/>
		<path fill="#FCF4F0" d="M511.3,711.7c0,1.4-0.3,2.7-1,3.9s-1.6,2.2-2.9,2.9s-2.9,1.1-4.8,1.1c-1.5,0-2.9-0.2-4.3-0.6
			s-2.6-1-3.8-1.8v-5.3c0.8,0.6,1.8,1.1,3.2,1.7s2.6,0.9,3.6,0.9c1.2,0,2-0.3,2.5-0.9s0.7-1.3,0.7-1.9c0-0.6-0.1-1.1-0.4-1.6
			s-0.8-0.9-1.5-1.2s-1.6-0.5-2.8-0.5c-1.3,0-2.5,0.2-3.7,0.7V695h14.1v5.1h-8.7v4.2c0.2,0,0.4,0,0.6-0.1s0.4,0,0.4,0s0.3,0,0.5,0
			c1.6,0,3.1,0.3,4.3,1s2.2,1.6,2.9,2.8S511.3,710.4,511.3,711.7z"/>
	</g>
	<g>
		<path fill="#FCF4F0" d="M163.7,695.4h-4.5v9.2h-3.7v-9.2h-4.5v-3h12.6V695.4z"/>
		<path fill="#FCF4F0" d="M179.6,704.6h-3.7v-4.8h-5.5v4.8h-3.7v-12.2h3.7v4.5h5.5v-4.5h3.7V704.6z"/>
	</g>
</g>
</svg>
